<?xml version="1.0" encoding="utf-8"?>
<!-- Generator: Adobe Illustrator 16.0.0, SVG Export Plug-In . SVG Version: 6.00 Build 0)  -->
<!DOCTYPE svg PUBLIC "-//W3C//DTD SVG 1.1//EN" "http://www.w3.org/Graphics/SVG/1.1/DTD/svg11.dtd">
<svg version="1.1" id="Layer_1" xmlns="http://www.w3.org/2000/svg" xmlns:xlink="http://www.w3.org/1999/xlink" x="0px" y="0px"
	 width="100px" height="100px" viewBox="0 0 100 100" enable-background="new 0 0 100 100" xml:space="preserve">
<path fill="#FFFFFF" d="M50,2c26.47,0,48,21.53,48,48S76.47,98,50,98S2,76.47,2,50S23.53,2,50,2z"/>
<path fill="#6EC829" d="M50,0c27.609,0,50,22.39,50,50c0,27.609-22.391,50-50,50C22.39,100,0,77.609,0,50C0,22.39,22.39,0,50,0z
	 M98,50C98,23.53,76.47,2,50,2S2,23.53,2,50s21.53,48,48,48S98,76.47,98,50z"/>
<rect x="59" y="36.5" fill="#F5E0CD" width="9" height="22.5"/>
<rect x="41" y="32" fill="#F5E0CD" width="18" height="31.5"/>
<rect x="36.5" y="41" fill="#231F20" width="4.5" height="4.5"/>
<rect x="50" y="45.5" fill="#3C2517" width="4.5" height="4.5"/>
<rect x="41" y="59" fill="#FFFFFF" width="4.5" height="4.5"/>
<rect x="59" y="45.5" fill="#3C2517" width="4.5" height="4.5"/>
<polygon fill="#3C2517" points="63.5,32 63.5,27.5 41,27.5 41,32 36.5,32 32,32 32,41 27.5,41 27.5,45.5 32,45.5 32,50 27.5,50 
	27.5,54.5 32,54.5 32,59 27.5,59 27.5,63.5 32,63.5 32,68 36.5,68 36.5,72.5 41,72.5 41,68 45.5,68 45.5,63.5 45.5,59 41,59 
	41,36.5 45.5,36.5 45.5,41 50,41 50,36.5 72.5,36.5 72.5,32 "/>
<rect x="36.5" y="45.5" fill="#F5E0CD" width="9" height="4.5"/>
</svg>
