<?xml version="1.0" encoding="utf-8"?>
<!-- Generator: Adobe Illustrator 16.0.0, SVG Export Plug-In . SVG Version: 6.00 Build 0)  -->
<!DOCTYPE svg PUBLIC "-//W3C//DTD SVG 1.1//EN" "http://www.w3.org/Graphics/SVG/1.1/DTD/svg11.dtd">
<svg version="1.1" id="Layer_1" xmlns="http://www.w3.org/2000/svg" xmlns:xlink="http://www.w3.org/1999/xlink" x="0px" y="0px"
	 width="100px" height="100px" viewBox="0 0 100 100" enable-background="new 0 0 100 100" xml:space="preserve">
<path fill="#FFFFFF" d="M50,2c26.471,0,48,21.53,48,48c0,26.471-21.529,48-48,48C23.53,98,2,76.471,2,50C2,23.53,23.53,2,50,2z"/>
<path fill="#6EC829" d="M50,0c27.609,0,50,22.39,50,50c0,27.609-22.391,50-50,50C22.39,100,0,77.609,0,50C0,22.39,22.39,0,50,0z
	 M98,50C98,23.53,76.471,2,50,2C23.53,2,2,23.53,2,50c0,26.471,21.53,48,48,48C76.471,98,98,76.471,98,50z"/>
<path fill="#555554" d="M68.154,56.331H54.289L50,43.143l-4.289,13.188H31.845l11.219,8.153l-4.29,13.195L50,69.527l11.218,8.152
	l-4.28-13.195L68.154,56.331z M59.01,74.641L50,68.091v-5.854l-9.016,12.404l3.446-10.6l0,0l5.565-1.811l-14.576-4.738l0,0h11.137
	l3.439,4.738H50V46.897l3.445,10.595L50,62.23l14.582-4.738l-9.012,6.549L50,62.23v0.006L59.01,74.641z"/>
<polygon fill="#555554" points="48,43.143 36.719,31.862 36.719,19.155 63.281,19.155 63.281,31.862 52,43.143 "/>
<line fill="none" stroke="#FFFFFF" stroke-width="2" stroke-miterlimit="10" x1="47" y1="43.143" x2="47" y2="15.155"/>
<line fill="none" stroke="#FFFFFF" stroke-width="2" stroke-miterlimit="10" x1="53" y1="43.143" x2="53" y2="15.155"/>
</svg>
