<?xml version="1.0" encoding="utf-8"?>
<!-- Generator: Adobe Illustrator 16.0.0, SVG Export Plug-In . SVG Version: 6.00 Build 0)  -->
<!DOCTYPE svg PUBLIC "-//W3C//DTD SVG 1.1//EN" "http://www.w3.org/Graphics/SVG/1.1/DTD/svg11.dtd">
<svg version="1.1" id="Layer_1" xmlns="http://www.w3.org/2000/svg" xmlns:xlink="http://www.w3.org/1999/xlink" x="0px" y="0px"
	 width="100px" height="100px" viewBox="0 0 100 100" enable-background="new 0 0 100 100" xml:space="preserve">
<path fill="#FFFFFF" d="M50,2c26.471,0,48,21.53,48,48S76.471,98,50,98C23.53,98,2,76.47,2,50S23.53,2,50,2z"/>
<path fill="#6EC829" d="M50,0c27.609,0,50,22.39,50,50c0,27.609-22.391,50-50,50C22.39,100,0,77.609,0,50C0,22.39,22.39,0,50,0z
	 M98,50C98,23.53,76.471,2,50,2C23.53,2,2,23.53,2,50s21.53,48,48,48C76.471,98,98,76.47,98,50z"/>
<path fill-rule="evenodd" clip-rule="evenodd" fill="#231F20" d="M56.521,47.88c0.365,0.203,0.708,0.372,1.029,0.576
	c1.872,1.189,2.828,2.949,3.054,5.107c0.119,1.141,0.133,2.295,0.14,3.445c0.015,2.632,0.021,5.266-0.021,7.897
	c-0.023,1.525-0.244,3.032-1.012,4.39c-1.354,2.391-3.526,3.541-6.152,3.931c-0.84,0.124-1.702,0.131-2.556,0.136
	c-2.807,0.016-5.613,0.007-8.422,0.005c-0.88-0.001-1.237-0.356-1.241-1.234c-0.009-1.865-0.017-3.731-0.021-5.597
	c-0.01-5.405-0.018-10.811-0.027-16.215c-0.015-7.41-0.031-14.821-0.047-22.231c-0.002-1.146,0.3-1.439,1.465-1.441
	c2.981-0.005,5.963-0.027,8.944-0.013c2.068,0.009,3.977,0.507,5.485,2.034c1.213,1.227,1.799,2.773,1.856,4.439
	c0.11,3.256,0.175,6.519,0.074,9.774C59,45.196,58.368,46.163,56.521,47.88z M46.576,59.531c0.004,0,0.008,0,0.013,0
	c0,0.228,0,0.454,0,0.681c0.003,2.546,0.009,5.092,0.009,7.638c0,0.361,0.035,0.681,0.512,0.672c1.691-0.032,3.385,0,5.069-0.113
	c1.884-0.127,2.849-0.988,3.168-2.632c0.076-0.392,0.138-0.794,0.139-1.192c0.014-3.086,0.051-6.172,0-9.256
	c-0.039-2.418-1.194-3.845-3.566-4.266c-1.532-0.271-3.116-0.247-4.676-0.377c-0.538-0.045-0.683,0.164-0.678,0.686
	C46.588,54.092,46.576,56.812,46.576,59.531z M53.936,38.227c0.033-0.001,0.066-0.002,0.101-0.003
	c-0.074-1.531-0.133-3.063-0.227-4.592c-0.063-1.038-0.681-1.64-1.646-1.922c-0.2-0.058-0.405-0.122-0.611-0.132
	c-1.217-0.063-2.434-0.138-3.651-0.158c-1.421-0.023-1.422,0-1.421,1.44c0.004,3.139,0.009,6.278,0.012,9.417
	c0.002,1.011,0.01,2.023-0.004,3.034c-0.005,0.37,0.108,0.547,0.51,0.528c1.061-0.052,2.129-0.021,3.184-0.129
	c2.372-0.242,3.641-1.598,3.745-3.979C53.978,40.565,53.936,39.395,53.936,38.227z"/>
</svg>
