<?xml version="1.0" encoding="utf-8"?>
<!-- Generator: Adobe Illustrator 16.0.0, SVG Export Plug-In . SVG Version: 6.00 Build 0)  -->
<!DOCTYPE svg PUBLIC "-//W3C//DTD SVG 1.1//EN" "http://www.w3.org/Graphics/SVG/1.1/DTD/svg11.dtd">
<svg version="1.1" id="Layer_1" xmlns="http://www.w3.org/2000/svg" xmlns:xlink="http://www.w3.org/1999/xlink" x="0px" y="0px"
	 width="792px" height="612px" viewBox="0 0 792 612" enable-background="new 0 0 792 612" xml:space="preserve">
<g>
	<text transform="matrix(1 0 0 1 451.9863 295.5781)" font-family="'Cardo-Regular'" font-size="11.25">$445,115</text>
	<text transform="matrix(1 0 0 1 521.0996 365.1113)" font-family="'Cardo-Regular'" font-size="11.25">$577,000</text>
	<text transform="matrix(1 0 0 1 312.1484 435.3652)" font-family="'Cardo-Regular'" font-size="11.25">$177,500</text>
	<text transform="matrix(1 0 0 1 291.8633 506.2051)" font-family="'Cardo-Regular'" font-size="11.25">$138,803</text>
	<text transform="matrix(1 0 0 1 312.1475 266.7832)" font-family="'Cardo-Regular'" font-size="11.25">$179,000</text>
	<text transform="matrix(1 0 0 1 218.7344 336.3203)" font-family="'Cardo-Regular'" font-size="11.25">$0</text>
	<text transform="matrix(1 0 0 1 245.9551 406.5742)" font-family="'Cardo-Regular'" font-size="11.25">$51,200</text>
	<text transform="matrix(1 0 0 1 260.4717 477.4082)" font-family="'Cardo-Regular'" font-size="11.25">$78,900</text>
</g>
<rect x="626.542" y="141.3" fill="#404040" width="48.491" height="39.206"/>
<rect x="287.87" y="76.568" fill="#404040" width="27.564" height="39.207"/>
<rect x="564.528" y="141.3" fill="#808080" width="62.014" height="39.206"/>
<rect x="269.984" y="76.568" fill="#808080" width="17.886" height="39.207"/>
<rect x="362.953" y="141.3" fill="#DFDFDF" width="201.575" height="39.206"/>
<rect x="269.984" y="76.568" fill="#DFDFDF" width="0" height="39.207"/>
<rect x="207.45" y="141.3" width="155.503" height="39.206"/>
<rect x="207.45" y="76.568" width="62.534" height="39.207"/>
<line fill="none" stroke="#BCBEC0" stroke-width="0.7031" stroke-miterlimit="10" x1="207.489" y1="372.029" x2="509.854" y2="372.029"/>
<rect x="207.879" y="492.393" fill="#404040" width="72.736" height="20.734"/>
<rect x="207.879" y="463.595" fill="#404040" width="41.347" height="20.732"/>
<rect x="207.879" y="421.554" fill="#808080" width="93.021" height="20.731"/>
<rect x="207.879" y="392.761" fill="#808080" width="26.828" height="20.73"/>
<rect x="207.489" y="351.303" fill="#DFDFDF" width="302.363" height="20.729"/>
<rect x="207.489" y="281.766" width="233.252" height="20.729"/>
<rect x="207.489" y="252.971" width="93.801" height="20.731"/>
<line fill="none" stroke="#DFDFDF" stroke-width="0.5" stroke-miterlimit="10" x1="207.489" y1="343.236" x2="207.489" y2="322.507"/>
<text transform="matrix(1 0 0 1 144.1406 292.1289)" font-family="'Cardo-Regular'" font-size="15">Gov’t</text>
<g>
	<text transform="matrix(1 0 0 1 149.0332 102.6572)" font-family="'Cardo-Regular'" font-size="15">2013</text>
</g>
<g>
	<text transform="matrix(1 0 0 1 149.0332 166.6582)" font-family="'Cardo-Regular'" font-size="15">2014</text>
</g>
<g>
	<text transform="matrix(1 0 0 1 325.4341 102.6572)" font-family="'Cardo-Regular'" font-size="15">$309,100</text>
</g>
<g>
	<text transform="matrix(1 0 0 1 685.0332 166.6582)" font-family="'Cardo-Regular'" font-size="15">$1,338,418</text>
</g>
<text transform="matrix(1 0 0 1 102.9033 361.6621)" font-family="'Cardo-Regular'" font-size="15">Foundations</text>
<text transform="matrix(1 0 0 1 115.1221 421.5508)" font-family="'Cardo-Regular'" font-size="15">Corporate</text>
<text transform="matrix(1 0 0 1 100.4229 481.5137)" font-family="'Cardo-Regular'" font-size="15">Individual &amp;</text>
<text transform="matrix(1 0 0 1 58.1689 499.5137)" font-family="'Cardo-Regular'" font-size="15">Fundraising Events</text>
</svg>
