<?xml version="1.0" encoding="utf-8"?>
<!-- Generator: Adobe Illustrator 16.0.0, SVG Export Plug-In . SVG Version: 6.00 Build 0)  -->
<!DOCTYPE svg PUBLIC "-//W3C//DTD SVG 1.1//EN" "http://www.w3.org/Graphics/SVG/1.1/DTD/svg11.dtd">
<svg version="1.1" id="Layer_1" xmlns="http://www.w3.org/2000/svg" xmlns:xlink="http://www.w3.org/1999/xlink" x="0px" y="0px"
	 width="153px" height="18px" viewBox="0 0 153 18" enable-background="new 0 0 153 18" xml:space="preserve">
<path fill="#3CB54A" d="M0,15V3h1.5v12H0z M1.5,1.5h6V3h-6V1.5z M7.5,15v1.5h-6V15H7.5z M9,3v3H7.5V3H9z M7.5,12H9v3H7.5V12z"/>
<path fill="#3CB54A" d="M19.5,12v4.5H18V12h-6V7.5h1.5V6H15V4.5h1.5V3H18V1.5h1.5v9H21V12H19.5z M18,10.5v-6h-1.5V6H15v1.5h-1.5v3
	H18z"/>
<path fill="#3CB54A" d="M25.5,16.5V15H24V3h1.5v10.5H27V15h3v-1.5h1.5V3H33v12h-1.5v1.5H25.5z M25.5,1.5h6V3h-6V1.5z M27,12h3v1.5
	h-3V12z M31.5,18v-1.5h3V18H31.5z"/>
<path fill="#3CB54A" d="M37.5,10.5V9h6v1.5H37.5z"/>
<path fill="#3CB54A" d="M54,3v13.5h-1.5V3H48V1.5h10.5V3H54z"/>
<path fill="#3CB54A" d="M60,15V6h1.5v3h6V6H69v4.5h-7.5V15H60z M61.5,4.5h6V6h-6V4.5z M67.5,15v1.5h-6V15H67.5v-1.5H69V15H67.5z"/>
<path fill="#3CB54A" d="M72,15V6h1.5v9H72z M73.5,4.5h6V6h-6V4.5z M79.5,15v1.5h-6V15H79.5v-1.5H81V15H79.5z M79.5,7.5V6H81v1.5
	H79.5z"/>
<path fill="#3CB54A" d="M85.5,0v6H87v1.5h-1.5v9H84V0H85.5z M87,4.5h4.5V6H87V4.5z M93,6v10.5h-1.5V6H93z"/>
<path fill="#3CB54A" d="M97.5,13.5v3H96v-3H97.5z M97.5,12H99v1.5h-1.5V12z M99,9h1.5v3H99V9z M100.5,6h1.5v3h-1.5V6z M102,4.5h1.5
	V6H102V4.5z M103.5,1.5h1.5v3h-1.5V1.5z"/>
<path fill="#3CB54A" d="M115.5,1.5V3h1.5v4.5h-1.5V3h-6v4.5h6V9h1.5v6h-1.5V9h-6v6h6v1.5H108v-15H115.5z"/>
<path fill="#3CB54A" d="M121.5,7.5H120V6h1.5V7.5z M120,15v-4.5h1.5V15H120z M121.5,4.5h6V6h-6V4.5z M126,15v-1.5h1.5v-3h-6V9h6V6
	h1.5v10.5h-1.5V15H126z M126,15v1.5h-4.5V15H126z"/>
<path fill="#3CB54A" d="M132,9V6h1.5v3H132z M132,15v-1.5h1.5V15H132z M133.5,4.5h6V6h-6V4.5z M133.5,10.5V9h3v1.5H133.5z M139.5,15
	v1.5h-6V15H139.5z M136.5,12v-1.5h3V12H136.5z M139.5,7.5V6h1.5v1.5H139.5z M139.5,12h1.5v3h-1.5V12z"/>
<path fill="#3CB54A" d="M145.5,0v6h1.5v1.5h-1.5v9H144V0H145.5z M147,4.5h4.5V6H147V4.5z M153,6v10.5h-1.5V6H153z"/>
</svg>
