<?xml version="1.0" encoding="utf-8"?>
<!-- Generator: Adobe Illustrator 16.0.0, SVG Export Plug-In . SVG Version: 6.00 Build 0)  -->
<!DOCTYPE svg PUBLIC "-//W3C//DTD SVG 1.1//EN" "http://www.w3.org/Graphics/SVG/1.1/DTD/svg11.dtd">
<svg version="1.1" id="Layer_1" xmlns="http://www.w3.org/2000/svg" xmlns:xlink="http://www.w3.org/1999/xlink" x="0px" y="0px"
	 width="504px" height="90px" viewBox="0 0 504 90" enable-background="new 0 0 504 90" xml:space="preserve">
<g>
	<rect x="272.25" y="24.75" fill="#F5E0CD" width="13.5" height="33.75"/>
	<polygon fill="#F5E0CD" points="346.5,24.75 326.25,24.75 319.5,24.75 319.5,58.5 326.25,58.5 326.25,65.25 346.5,65.25 
		346.5,58.5 360,58.5 360,24.75 	"/>
	<polygon fill="#231F20" points="353.25,18 353.25,11.25 319.5,11.25 319.5,18 312.75,18 312.75,24.75 306,24.75 306,65.25 
		312.75,65.25 312.75,72 319.5,72 319.5,78.75 326.25,78.75 326.25,58.5 319.5,58.5 319.5,24.75 326.25,24.75 326.25,31.5 333,31.5 
		333,24.75 366.75,24.75 366.75,18 	"/>
	<polygon fill="#F5E0CD" points="387,18 387,58.5 393.75,58.5 400.5,58.5 400.5,65.25 420.75,65.25 420.75,58.5 427.5,58.5 
		434.25,58.5 434.25,18 	"/>
	<polygon fill="#F5E0CD" points="69.75,18 69.75,58.5 76.5,58.5 76.5,65.25 110.25,65.25 110.25,58.5 117,58.5 117,18 	"/>
	<polygon fill="#F5E0CD" points="150.75,18 150.75,58.5 157.5,58.5 157.5,65.25 191.25,65.25 191.25,58.5 198,58.5 198,18 	"/>
	<path fill="#1D1410" d="M184.5,31.5h-6.75H157.5v6.75v13.5h6.75h13.5V45v-6.75h6.75v13.5h6.75h13.5V45v-6.75V31.5H184.5z M171,45
		h-6.75v-6.75H171V45z M198,45h-6.75v-6.75H198V45z"/>
	<rect x="150.75" y="31.5" fill="#231F20" width="6.75" height="6.75"/>
	<rect x="164.25" y="38.25" fill="#FFFFFF" width="6.75" height="6.75"/>
	<polygon fill="#231F20" points="157.5,11.25 157.5,18 144,18 144,38.25 157.5,38.25 157.5,24.75 204.75,24.75 204.75,11.25 	"/>
	<rect x="191.25" y="38.25" fill="#FFFFFF" width="6.75" height="6.75"/>
	<rect x="90" y="38.25" fill="#231F20" width="6.75" height="6.75"/>
	<polygon fill="#231F20" points="76.5,11.25 76.5,18 63,18 63,38.25 76.5,38.25 76.5,24.75 123.75,24.75 123.75,11.25 	"/>
	<rect x="103.5" y="38.25" fill="#231F20" width="6.75" height="6.75"/>
	<rect x="387" y="31.5" fill="#231F20" width="6.75" height="6.75"/>
	<rect x="407.25" y="38.25" fill="#3C2517" width="6.75" height="6.75"/>
	<rect x="420.75" y="38.25" fill="#3C2517" width="6.75" height="6.75"/>
	<polygon fill="#3C2517" points="441,18 427.5,18 427.5,11.25 393.75,11.25 393.75,18 380.25,18 380.25,72 387,72 387,78.75 
		393.75,78.75 393.75,72 393.75,24.75 441,24.75 	"/>
	<rect x="387" y="38.25" fill="#F5E0CD" width="13.5" height="6.75"/>
	<rect x="238.5" y="18" fill="#F5E0CD" width="33.75" height="47.25"/>
	<rect x="238.5" y="31.5" fill="#231F20" width="6.75" height="6.75"/>
	<rect x="258.75" y="38.25" fill="#3C2517" width="6.75" height="6.75"/>
	<rect x="245.25" y="58.5" fill="#FFFFFF" width="6.75" height="6.75"/>
	<rect x="272.25" y="38.25" fill="#3C2517" width="6.75" height="6.75"/>
	<rect x="238.5" y="38.25" fill="#F5E0CD" width="13.5" height="6.75"/>
	<rect x="333" y="38.25" fill="#231F20" width="6.75" height="6.75"/>
	<rect x="346.5" y="38.25" fill="#231F20" width="6.75" height="6.75"/>
	<rect x="312.75" y="45" fill="#29AAE1" width="6.75" height="6.75"/>
	<rect x="312.75" y="38.25" fill="#F5E0CD" width="13.5" height="6.75"/>
	<polygon fill="#3C2517" points="279,18 279,11.25 245.25,11.25 245.25,18 238.5,18 231.75,18 231.75,31.5 225,31.5 225,38.25 
		231.75,38.25 231.75,45 225,45 225,51.75 231.75,51.75 231.75,58.5 225,58.5 225,65.25 231.75,65.25 231.75,72 238.5,72 
		238.5,78.75 245.25,78.75 245.25,72 252,72 252,65.25 252,58.5 245.25,58.5 245.25,24.75 252,24.75 252,31.5 258.75,31.5 
		258.75,24.75 292.5,24.75 292.5,18 	"/>
	<rect x="238.5" y="38.25" fill="#F5E0CD" width="13.5" height="6.75"/>
</g>
</svg>
