<?xml version="1.0" encoding="utf-8"?>
<!-- Generator: Adobe Illustrator 16.0.0, SVG Export Plug-In . SVG Version: 6.00 Build 0)  -->
<!DOCTYPE svg PUBLIC "-//W3C//DTD SVG 1.1//EN" "http://www.w3.org/Graphics/SVG/1.1/DTD/svg11.dtd">
<svg version="1.1" id="Layer_1" xmlns="http://www.w3.org/2000/svg" xmlns:xlink="http://www.w3.org/1999/xlink" x="0px" y="0px"
	 width="100px" height="100px" viewBox="0 0 100 100" enable-background="new 0 0 100 100" xml:space="preserve">
<path fill="#FFFFFF" d="M50,2c26.471,0,48,21.53,48,48c0,26.471-21.529,48-48,48C23.53,98,2,76.471,2,50C2,23.53,23.53,2,50,2z"/>
<path fill="#6EC829" d="M50,0c27.609,0,50,22.39,50,50c0,27.609-22.391,50-50,50C22.39,100,0,77.609,0,50C0,22.39,22.39,0,50,0z
	 M98,50C98,23.53,76.471,2,50,2C23.53,2,2,23.53,2,50c0,26.471,21.53,48,48,48C76.471,98,98,76.471,98,50z"/>
<rect x="31" y="31" fill="none" stroke="#555554" stroke-width="2" stroke-miterlimit="10" width="12.667" height="37.999"/>
<rect x="43.667" y="38.212" fill="none" stroke="#555554" stroke-width="2" stroke-miterlimit="10" width="12.666" height="23.574"/>
<rect x="56.333" y="31" fill="none" stroke="#555554" stroke-width="2" stroke-miterlimit="10" width="12.667" height="37.999"/>
<g>
	<rect x="59.869" y="34.535" fill="none" stroke="#555554" stroke-miterlimit="10" width="5.594" height="30.926"/>
	<line fill="none" stroke="#555554" stroke-miterlimit="10" x1="59.869" y1="34.535" x2="56.333" y2="31"/>
	<line fill="none" stroke="#555554" stroke-miterlimit="10" x1="65.463" y1="34.535" x2="69" y2="31"/>
	<line fill="none" stroke="#555554" stroke-miterlimit="10" x1="65.463" y1="65.461" x2="69" y2="68.998"/>
	<line fill="none" stroke="#555554" stroke-miterlimit="10" x1="59.869" y1="65.461" x2="56.333" y2="68.998"/>
</g>
<g>
	<rect x="34.536" y="34.535" fill="none" stroke="#555554" stroke-miterlimit="10" width="5.594" height="30.926"/>
	<line fill="none" stroke="#555554" stroke-miterlimit="10" x1="34.536" y1="34.535" x2="31" y2="31"/>
	<line fill="none" stroke="#555554" stroke-miterlimit="10" x1="40.13" y1="34.535" x2="43.667" y2="31"/>
	<line fill="none" stroke="#555554" stroke-miterlimit="10" x1="40.13" y1="65.461" x2="43.667" y2="68.998"/>
	<line fill="none" stroke="#555554" stroke-miterlimit="10" x1="34.536" y1="65.461" x2="31" y2="68.998"/>
</g>
</svg>
