<?xml version="1.0" encoding="utf-8"?>
<!-- Generator: Adobe Illustrator 16.0.0, SVG Export Plug-In . SVG Version: 6.00 Build 0)  -->
<!DOCTYPE svg PUBLIC "-//W3C//DTD SVG 1.1//EN" "http://www.w3.org/Graphics/SVG/1.1/DTD/svg11.dtd">
<svg version="1.1" id="Layer_1" xmlns="http://www.w3.org/2000/svg" xmlns:xlink="http://www.w3.org/1999/xlink" x="0px" y="0px"
	 width="100px" height="100px" viewBox="0 0 100 100" enable-background="new 0 0 100 100" xml:space="preserve">
<g>
	<g id="XMLID_1_">
		<path fill="#FFFFFF" d="M50,35.78c5.58,0,10.12,4.54,10.12,10.12c0,3.64-1.979,7.02-5.17,8.81l-1.011,0.58v1.17v4.42
			c0,0.88-0.721,1.59-1.601,1.59h-4.68c-0.88,0-1.6-0.71-1.6-1.59v-4.42v-1.17l-1.02-0.57c-3.18-1.8-5.16-5.18-5.16-8.82
			C39.88,40.32,44.42,35.78,50,35.78z"/>
		<path fill="#565655" d="M55.939,60.88c0,1.99-1.609,3.59-3.601,3.59h-4.68c-1.99,0-3.6-1.608-3.6-3.59v-4.42
			c-3.68-2.08-6.18-6.03-6.18-10.56c0-6.69,5.43-12.12,12.12-12.12c6.69,0,12.12,5.43,12.12,12.12c0,4.54-2.5,8.48-6.18,10.56V60.88
			L55.939,60.88z M54.95,54.71c3.188-1.79,5.17-5.17,5.17-8.81c0-5.58-4.54-10.12-10.12-10.12S39.88,40.32,39.88,45.9
			c0,3.64,1.98,7.02,5.16,8.82l1.02,0.57v1.17v4.42c0,0.88,0.72,1.59,1.6,1.59h4.68c0.881,0,1.602-0.71,1.602-1.59v-4.42v-1.17
			L54.95,54.71z"/>
	</g>
</g>
<line fill="none" stroke="#565655" stroke-width="2" stroke-linecap="round" stroke-miterlimit="10" x1="45.526" y1="66.65" x2="54.475" y2="66.65"/>
<line fill="none" stroke="#565655" stroke-width="2" stroke-linecap="round" stroke-miterlimit="10" x1="45.974" y1="69.779" x2="54.027" y2="69.779"/>
<g>
	
		<line fill="none" stroke="#565655" stroke-width="2" stroke-linecap="round" stroke-miterlimit="10" x1="50" y1="62.661" x2="50" y2="52.715"/>
	
		<line fill="none" stroke="#565655" stroke-width="2" stroke-linecap="round" stroke-miterlimit="10" x1="46.412" y1="49.127" x2="50" y2="52.715"/>
	
		<line fill="none" stroke="#565655" stroke-width="2" stroke-linecap="round" stroke-miterlimit="10" x1="53.588" y1="49.127" x2="50" y2="52.715"/>
</g>
<line fill="none" stroke="#565655" stroke-width="2" stroke-linecap="round" stroke-miterlimit="10" x1="67.52" y1="45.899" x2="72.494" y2="45.899"/>
<line fill="none" stroke="#565655" stroke-width="2" stroke-linecap="round" stroke-miterlimit="10" x1="65.152" y1="39.043" x2="69.46" y2="36.556"/>
<line fill="none" stroke="#565655" stroke-width="2" stroke-linecap="round" stroke-miterlimit="10" x1="69.46" y1="55.243" x2="65.152" y2="52.757"/>
<line fill="none" stroke="#565655" stroke-width="2" stroke-linecap="round" stroke-miterlimit="10" x1="32.48" y1="45.899" x2="27.507" y2="45.899"/>
<line fill="none" stroke="#565655" stroke-width="2" stroke-linecap="round" stroke-miterlimit="10" x1="34.847" y1="39.043" x2="30.54" y2="36.556"/>
<line fill="none" stroke="#565655" stroke-width="2" stroke-linecap="round" stroke-miterlimit="10" x1="30.54" y1="55.243" x2="34.847" y2="52.756"/>
<g>
	<path fill="#565655" d="M44.065,60.875h11.871c0,1.99-1.607,3.602-3.6,3.602h-4.671C45.675,64.477,44.065,62.865,44.065,60.875z"/>
</g>
<g>
	<path fill="#6EC829" d="M50,2c26.468,0,48,21.533,48,48c0,26.468-21.532,48-48,48C23.533,98,2,76.468,2,50C2,23.533,23.533,2,50,2
		 M50,0C22.386,0,0,22.386,0,50c0,27.613,22.386,50,50,50c27.613,0,50-22.387,50-50C100,22.386,77.613,0,50,0L50,0z"/>
</g>
</svg>
