<?xml version="1.0" encoding="utf-8"?>
<!-- Generator: Adobe Illustrator 16.0.0, SVG Export Plug-In . SVG Version: 6.00 Build 0)  -->
<!DOCTYPE svg PUBLIC "-//W3C//DTD SVG 1.1//EN" "http://www.w3.org/Graphics/SVG/1.1/DTD/svg11.dtd">
<svg version="1.1" id="Layer_1" xmlns="http://www.w3.org/2000/svg" xmlns:xlink="http://www.w3.org/1999/xlink" x="0px" y="0px"
	 width="100px" height="100px" viewBox="0 0 100 100" enable-background="new 0 0 100 100" xml:space="preserve">
<g>
	<path fill="#6EC829" d="M50,2c26.468,0,48,21.533,48,48c0,26.468-21.532,48-48,48C23.533,98,2,76.468,2,50C2,23.533,23.533,2,50,2
		 M50,0C22.386,0,0,22.386,0,50c0,27.613,22.386,50,50,50c27.613,0,50-22.387,50-50C100,22.386,77.613,0,50,0L50,0z"/>
</g>
<g>
	<g>
		<g>
			<path fill="#565655" d="M61.331,35.562c1.629,0,3.161,0.634,4.313,1.787c1.15,1.153,1.785,2.684,1.785,4.313
				s-0.635,3.161-1.785,4.313c-1.152,1.151-2.686,1.786-4.313,1.786c-0.208,0-0.418-0.011-0.624-0.032
				c-0.068-0.007-0.137-0.01-0.203-0.01c-0.516,0-1.016,0.2-1.391,0.562L41.164,65.633l-3.805-3.805l17.354-17.95
				c0.41-0.424,0.613-1.006,0.553-1.593c-0.188-1.836,0.451-3.636,1.752-4.938C58.17,36.196,59.702,35.562,61.331,35.562
				 M61.331,33.562c-2.073,0-4.146,0.791-5.728,2.373c-1.793,1.792-2.566,4.214-2.328,6.552l-18.72,19.365l6.586,6.586l19.363-18.72
				c0.275,0.028,0.551,0.042,0.827,0.042c2.073,0,4.146-0.79,5.728-2.371c3.164-3.163,3.164-8.292,0-11.455
				C65.477,34.353,63.404,33.562,61.331,33.562L61.331,33.562z"/>
		</g>
	</g>
	<line fill="none" stroke="#565655" stroke-width="2" stroke-miterlimit="10" x1="54.458" y1="34.789" x2="68.204" y2="48.534"/>
	<line fill="none" stroke="#565655" stroke-width="2" stroke-miterlimit="10" x1="60.504" y1="49.719" x2="54.025" y2="43.24"/>
	<line fill="none" stroke="#565655" stroke-miterlimit="10" x1="57.781" y1="52.357" x2="51.344" y2="45.921"/>
	<path fill="none" stroke="#565655" stroke-width="2" stroke-linecap="round" stroke-miterlimit="10" d="M37.848,65.145
		c0,0-3.954,3.955-6.762,1.146c-4.351-4.352-5.939-2.764-8.517-0.186"/>
</g>
</svg>
