<?xml version="1.0" encoding="utf-8"?>
<!-- Generator: Adobe Illustrator 16.0.0, SVG Export Plug-In . SVG Version: 6.00 Build 0)  -->
<!DOCTYPE svg PUBLIC "-//W3C//DTD SVG 1.1//EN" "http://www.w3.org/Graphics/SVG/1.1/DTD/svg11.dtd">
<svg version="1.1" id="Layer_1" xmlns="http://www.w3.org/2000/svg" xmlns:xlink="http://www.w3.org/1999/xlink" x="0px" y="0px"
	 width="100px" height="100px" viewBox="0 0 100 100" enable-background="new 0 0 100 100" xml:space="preserve">
<g>
	<g id="XMLID_1_">
		<path fill="#FFFFFF" d="M67.43,41.66c0,1.63-0.64,3.16-1.789,4.32c-1.149,1.15-2.681,1.78-4.311,1.78c-0.21,0-0.42-0.01-0.62-0.03
			c-0.069-0.01-0.14-0.01-0.21-0.01c-0.51,0-1.01,0.2-1.391,0.561L41.16,65.63l-3.8-3.8l17.35-17.95c0.41-0.43,0.62-1.01,0.56-1.59
			c-0.188-1.84,0.451-3.64,1.75-4.94c1.15-1.15,2.682-1.79,4.312-1.79s3.16,0.64,4.31,1.79S67.43,40.03,67.43,41.66z"/>
		<path fill="#565655" d="M67.061,35.93c3.16,3.17,3.16,8.3,0,11.46c-1.58,1.58-3.66,2.37-5.729,2.37c-0.28,0-0.55-0.01-0.83-0.04
			L41.14,68.439l-6.58-6.59L53.279,42.49c-0.239-2.34,0.529-4.76,2.32-6.55c1.59-1.59,3.659-2.38,5.729-2.38
			C63.398,33.56,65.48,34.35,67.061,35.93z M67.43,41.66c0-1.63-0.64-3.16-1.789-4.31s-2.681-1.79-4.311-1.79s-3.16,0.64-4.311,1.79
			c-1.301,1.3-1.939,3.1-1.75,4.94c0.061,0.58-0.149,1.16-0.561,1.59L37.36,61.83l3.8,3.8l17.949-17.35
			c0.381-0.36,0.881-0.56,1.391-0.56c0.07,0,0.141,0,0.21,0.01c0.2,0.02,0.41,0.03,0.62,0.03c1.63,0,3.16-0.63,4.311-1.78
			C66.79,44.82,67.43,43.29,67.43,41.66z"/>
	</g>
</g>
<line fill="none" stroke="#565655" stroke-width="2" stroke-miterlimit="10" x1="54.458" y1="34.789" x2="68.204" y2="48.534"/>
<line fill="none" stroke="#565655" stroke-width="2" stroke-miterlimit="10" x1="60.504" y1="49.719" x2="54.025" y2="43.24"/>
<line fill="none" stroke="#565655" stroke-miterlimit="10" x1="57.781" y1="52.357" x2="51.344" y2="45.921"/>
<path fill="none" stroke="#565655" stroke-width="2" stroke-linecap="round" stroke-miterlimit="10" d="M37.848,65.145
	c0,0-3.954,3.955-6.762,1.146c-4.351-4.352-5.939-2.764-8.517-0.186"/>
<g>
	<path fill="#6EC829" d="M50,2c26.468,0,48,21.533,48,48c0,26.468-21.532,48-48,48C23.533,98,2,76.468,2,50C2,23.533,23.533,2,50,2
		 M50,0C22.386,0,0,22.386,0,50c0,27.613,22.386,50,50,50c27.613,0,50-22.387,50-50C100,22.386,77.613,0,50,0L50,0z"/>
</g>
</svg>
