<?xml version="1.0" encoding="utf-8"?>
<!-- Generator: Adobe Illustrator 16.0.0, SVG Export Plug-In . SVG Version: 6.00 Build 0)  -->
<!DOCTYPE svg PUBLIC "-//W3C//DTD SVG 1.1//EN" "http://www.w3.org/Graphics/SVG/1.1/DTD/svg11.dtd">
<svg version="1.1" id="Layer_1" xmlns="http://www.w3.org/2000/svg" xmlns:xlink="http://www.w3.org/1999/xlink" x="0px" y="0px"
	 width="100px" height="100px" viewBox="0 0 100 100" enable-background="new 0 0 100 100" xml:space="preserve">
<g>
	<g>
		<path fill="#E7E7E7" d="M50,2c26.468,0,48,21.533,48,48c0,26.468-21.532,48-48,48C23.533,98,2,76.468,2,50C2,23.533,23.533,2,50,2
			 M50,0C22.386,0,0,22.386,0,50c0,27.613,22.386,50,50,50s50-22.387,50-50C100,22.386,77.614,0,50,0L50,0z"/>
	</g>
	<g>
		
			<rect x="30" y="31.25" fill="none" stroke="#565655" stroke-width="2" stroke-linecap="round" stroke-miterlimit="10" width="40" height="30"/>
		
			<line fill="none" stroke="#565655" stroke-width="2" stroke-linecap="round" stroke-miterlimit="10" x1="27" y1="31.25" x2="73" y2="31.25"/>
		
			<line fill="none" stroke="#565655" stroke-width="2" stroke-linecap="round" stroke-miterlimit="10" x1="27" y1="61.25" x2="73" y2="61.25"/>
		
			<line fill="none" stroke="#565655" stroke-width="2" stroke-linecap="round" stroke-miterlimit="10" x1="50" y1="27.5" x2="50" y2="31.25"/>
		
			<line fill="none" stroke="#565655" stroke-width="2" stroke-linecap="round" stroke-miterlimit="10" x1="50" y1="61.25" x2="50" y2="66.875"/>
		
			<line fill="none" stroke="#565655" stroke-width="2" stroke-linecap="round" stroke-miterlimit="10" x1="50" y1="66.876" x2="38.75" y2="72.5"/>
		
			<line fill="none" stroke="#565655" stroke-width="2" stroke-linecap="round" stroke-miterlimit="10" x1="50" y1="66.876" x2="61.25" y2="72.5"/>
	</g>
</g>
</svg>
