<?xml version="1.0" encoding="utf-8"?>
<!-- Generator: Adobe Illustrator 16.0.0, SVG Export Plug-In . SVG Version: 6.00 Build 0)  -->
<!DOCTYPE svg PUBLIC "-//W3C//DTD SVG 1.1//EN" "http://www.w3.org/Graphics/SVG/1.1/DTD/svg11.dtd">
<svg version="1.1" id="Layer_1" xmlns="http://www.w3.org/2000/svg" xmlns:xlink="http://www.w3.org/1999/xlink" x="0px" y="0px"
	 width="100px" height="100px" viewBox="0 0 100 100" enable-background="new 0 0 100 100" xml:space="preserve">
<g>
	<path fill="#6EC829" d="M50,2c26.468,0,48,21.533,48,48c0,26.468-21.532,48-48,48C23.533,98,2,76.468,2,50C2,23.533,23.533,2,50,2
		 M50,0C22.386,0,0,22.386,0,50s22.386,50,50,50c27.613,0,50-22.386,50-50S77.613,0,50,0L50,0z"/>
</g>
<g id="Your_Icon_1_">
	<path fill="#FFFFFF" stroke="#555554" stroke-width="2.3728" stroke-linejoin="round" stroke-miterlimit="10" d="M72.258,45.338
		c0-6.187-4.876-11.055-10.887-11.055c-4.852,0-8.957,3.343-10.363,7.86c-1.407-4.517-5.512-7.744-10.365-7.744
		c-6.011,0-10.883,4.729-10.883,10.918c0,3.123,1.245,5.33,3.248,7.69h-0.029L51.02,71.575l18.037-18.568h-0.048
		C71.012,50.646,72.258,48.459,72.258,45.338z"/>
</g>
</svg>
