<?xml version="1.0" encoding="utf-8"?>
<!-- Generator: Adobe Illustrator 16.0.0, SVG Export Plug-In . SVG Version: 6.00 Build 0)  -->
<!DOCTYPE svg PUBLIC "-//W3C//DTD SVG 1.1//EN" "http://www.w3.org/Graphics/SVG/1.1/DTD/svg11.dtd">
<svg version="1.1" id="Layer_1" xmlns="http://www.w3.org/2000/svg" xmlns:xlink="http://www.w3.org/1999/xlink" x="0px" y="0px"
	 width="100px" height="100px" viewBox="0 0 100 100" enable-background="new 0 0 100 100" xml:space="preserve">
<g id="Your_Icon_1_">
	<path fill="#FFFFFF" stroke="#555554" stroke-width="2.3728" stroke-linejoin="round" stroke-miterlimit="10" d="M68.221,46.781
		c0-5.012-3.949-8.955-8.818-8.955c-3.93,0-7.256,2.708-8.395,6.367c-1.14-3.659-4.464-6.273-8.396-6.273
		c-4.869,0-8.815,3.83-8.815,8.844c0,2.529,1.009,4.316,2.631,6.229h-0.023l14.613,15.04l14.609-15.04h-0.038
		C67.211,51.08,68.221,49.309,68.221,46.781z"/>
</g>
<g>
	<path fill="#6EC829" d="M50,2c26.468,0,48,21.533,48,48c0,26.468-21.532,48-48,48C23.533,98,2,76.468,2,50C2,23.533,23.533,2,50,2
		 M50,0C22.386,0,0,22.386,0,50c0,27.613,22.386,50,50,50c27.613,0,50-22.387,50-50C100,22.386,77.613,0,50,0L50,0z"/>
</g>
</svg>
