<?xml version="1.0" encoding="utf-8"?>
<!-- Generator: Adobe Illustrator 16.0.0, SVG Export Plug-In . SVG Version: 6.00 Build 0)  -->
<!DOCTYPE svg PUBLIC "-//W3C//DTD SVG 1.1//EN" "http://www.w3.org/Graphics/SVG/1.1/DTD/svg11.dtd">
<svg version="1.1" id="Layer_1" xmlns="http://www.w3.org/2000/svg" xmlns:xlink="http://www.w3.org/1999/xlink" x="0px" y="0px"
	 width="100px" height="100px" viewBox="0 0 100 100" enable-background="new 0 0 100 100" xml:space="preserve">
<path fill="#FFFFFF" d="M50,2c26.47,0,48,21.53,48,48S76.47,98,50,98S2,76.47,2,50S23.53,2,50,2z"/>
<path fill="#6EC829" d="M50,0c27.609,0,50,22.39,50,50c0,27.609-22.391,50-50,50C22.39,100,0,77.609,0,50C0,22.39,22.39,0,50,0z
	 M98,50C98,23.53,76.47,2,50,2S2,23.53,2,50s21.53,48,48,48S98,76.47,98,50z"/>
<g>
	<polygon fill="#F5E0CD" points="34.25,36.5 34.25,63.5 38.75,63.5 38.75,68 61.25,68 61.25,63.5 65.75,63.5 65.75,36.5 	"/>
	<rect x="47.75" y="50" fill="#231F20" width="4.5" height="4.5"/>
	<polygon fill="#231F20" points="38.75,32 38.75,36.5 29.75,36.5 29.75,50 38.75,50 38.75,41 70.25,41 70.25,32 	"/>
	<rect x="56.75" y="50" fill="#231F20" width="4.5" height="4.5"/>
</g>
</svg>
