<?xml version="1.0" encoding="utf-8"?>
<!-- Generator: Adobe Illustrator 16.0.0, SVG Export Plug-In . SVG Version: 6.00 Build 0)  -->
<!DOCTYPE svg PUBLIC "-//W3C//DTD SVG 1.1//EN" "http://www.w3.org/Graphics/SVG/1.1/DTD/svg11.dtd">
<svg version="1.1" id="Layer_1" xmlns="http://www.w3.org/2000/svg" xmlns:xlink="http://www.w3.org/1999/xlink" x="0px" y="0px"
	 width="100px" height="100px" viewBox="0 0 100 100" enable-background="new 0 0 100 100" xml:space="preserve">
<g>
	<path fill="#6EC829" d="M50,2c26.468,0,48,21.533,48,48c0,26.468-21.532,48-48,48C23.533,98,2,76.468,2,50C2,23.533,23.533,2,50,2
		 M50,0C22.386,0,0,22.386,0,50s22.386,50,50,50c27.613,0,50-22.386,50-50S77.613,0,50,0L50,0z"/>
</g>
<g>
	
		<rect x="32.995" y="51.809" fill="none" stroke="#555554" stroke-width="2" stroke-linecap="round" stroke-linejoin="round" stroke-miterlimit="10" width="11.889" height="10.041"/>
	
		<line fill="none" stroke="#555554" stroke-width="2" stroke-linecap="round" stroke-miterlimit="10" x1="72.066" y1="50" x2="77.041" y2="50"/>
	
		<line fill="none" stroke="#555554" stroke-width="2" stroke-linecap="round" stroke-miterlimit="10" x1="69.7" y1="43.144" x2="74.007" y2="40.656"/>
	
		<line fill="none" stroke="#555554" stroke-width="2" stroke-linecap="round" stroke-miterlimit="10" x1="74.007" y1="59.344" x2="69.7" y2="56.857"/>
	<g>
		
			<polygon fill="#FFFFFF" stroke="#555554" stroke-width="2" stroke-linecap="round" stroke-linejoin="round" stroke-miterlimit="10" points="
			61.098,38.15 28.393,45.551 24.96,45.551 24.96,54.449 28.393,54.449 61.098,61.85 64.529,61.85 64.529,38.15 		"/>
		<line fill="none" stroke="#555554" stroke-miterlimit="10" x1="61.098" y1="61.85" x2="61.098" y2="38.15"/>
		<line fill="none" stroke="#555554" stroke-miterlimit="10" x1="28.393" y1="54.449" x2="28.393" y2="45.551"/>
	</g>
</g>
</svg>
