<?xml version="1.0" encoding="utf-8"?>
<!-- Generator: Adobe Illustrator 16.0.0, SVG Export Plug-In . SVG Version: 6.00 Build 0)  -->
<!DOCTYPE svg PUBLIC "-//W3C//DTD SVG 1.1//EN" "http://www.w3.org/Graphics/SVG/1.1/DTD/svg11.dtd">
<svg version="1.1" id="Layer_1" xmlns="http://www.w3.org/2000/svg" xmlns:xlink="http://www.w3.org/1999/xlink" x="0px" y="0px"
	 width="100px" height="100px" viewBox="0 0 100 100" enable-background="new 0 0 100 100" xml:space="preserve">
<path fill="#FFFFFF" d="M50,2c26.471,0,48,21.53,48,48c0,26.471-21.529,48-48,48C23.53,98,2,76.471,2,50C2,23.53,23.53,2,50,2z"/>
<path fill="#6EC829" d="M50,0c27.609,0,50,22.39,50,50c0,27.609-22.391,50-50,50C22.39,100,0,77.609,0,50C0,22.39,22.39,0,50,0z
	 M98,50C98,23.53,76.471,2,50,2C23.53,2,2,23.53,2,50c0,26.471,21.53,48,48,48C76.471,98,98,76.471,98,50z"/>
<polygon fill="#F4D6CB" points="34.25,32 34.25,59 38.75,59 43.25,59 43.25,63.5 56.75,63.5 56.75,59 61.25,59 65.75,59 65.75,32 
	"/>
<rect x="34.25" y="41" fill="#231F20" width="4.5" height="4.5"/>
<rect x="47.75" y="45.5" fill="#3C2517" width="4.5" height="4.5"/>
<rect x="56.75" y="45.5" fill="#3C2517" width="4.5" height="4.5"/>
<polygon fill="#3C2517" points="70.25,32 61.25,32 61.25,27.5 38.75,27.5 38.75,32 29.75,32 29.75,68 34.25,68 34.25,72.5 
	38.75,72.5 38.75,68 38.75,36.5 70.25,36.5 "/>
<rect x="34.25" y="45.5" fill="#F4D6CB" width="9" height="4.5"/>
</svg>
