<?xml version="1.0" encoding="utf-8"?>
<!-- Generator: Adobe Illustrator 16.0.0, SVG Export Plug-In . SVG Version: 6.00 Build 0)  -->
<!DOCTYPE svg PUBLIC "-//W3C//DTD SVG 1.1//EN" "http://www.w3.org/Graphics/SVG/1.1/DTD/svg11.dtd">
<svg version="1.1" id="Layer_1" xmlns="http://www.w3.org/2000/svg" xmlns:xlink="http://www.w3.org/1999/xlink" x="0px" y="0px"
	 width="100px" height="100px" viewBox="0 0 100 100" enable-background="new 0 0 100 100" xml:space="preserve">
<g>
	<path fill="#FFFFFF" d="M50,2c26.468,0,48,21.533,48,48c0,26.468-21.532,48-48,48C23.533,98,2,76.468,2,50C2,23.533,23.533,2,50,2
		 M50,0C22.386,0,0,22.386,0,50c0,27.613,22.386,50,50,50c27.613,0,50-22.387,50-50C100,22.386,77.613,0,50,0L50,0z"/>
</g>
<path fill="#FFFFFF" stroke="#555554" stroke-width="2.3728" stroke-linejoin="round" stroke-miterlimit="10" d="M56.896,35
	c-2.489,0-4.832,0.615-6.897,1.689C47.933,35.615,45.591,35,43.102,35c-8.284,0-15,6.716-15,15s6.716,15,15,15
	c2.489,0,4.831-0.615,6.897-1.689C52.064,64.385,54.407,65,56.896,65c8.283,0,15-6.716,15-15S65.182,35,56.896,35z"/>
<path fill="none" stroke="#555554" stroke-linejoin="round" stroke-miterlimit="10" d="M49.999,36.689
	c-4.811,2.498-8.102,7.516-8.102,13.311s3.291,10.813,8.102,13.311c4.812-2.498,8.103-7.516,8.103-13.311
	S54.811,39.188,49.999,36.689z"/>
</svg>
