<?xml version="1.0" encoding="utf-8"?>
<!-- Generator: Adobe Illustrator 16.0.0, SVG Export Plug-In . SVG Version: 6.00 Build 0)  -->
<!DOCTYPE svg PUBLIC "-//W3C//DTD SVG 1.1//EN" "http://www.w3.org/Graphics/SVG/1.1/DTD/svg11.dtd">
<svg version="1.1" id="Layer_1" xmlns="http://www.w3.org/2000/svg" xmlns:xlink="http://www.w3.org/1999/xlink" x="0px" y="0px"
	 width="320px" height="106px" viewBox="0 0 320 106" enable-background="new 0 0 320 106" xml:space="preserve">
<polygon fill="#FFFFFF" points="303.756,17.779 269.457,52.086 235.158,17.779 218.914,1.544 218.914,103.918 235.158,103.918 
	235.158,40.954 269.457,75.253 303.756,40.954 303.756,103.918 320,103.918 320,1.544 "/>
<path fill="#FFFFFF" d="M97.242,81.766c5.56-8.51,8.547-18.455,8.547-28.857c0-12.285-4.162-23.932-11.814-33.333L82.397,31.151
	c4.638,6.264,7.147,13.817,7.147,21.756c0,9.793-3.815,19-10.738,25.923c-1.256,1.257-2.593,2.411-3.993,3.459l1.226,1.227
	l-0.009,0.008l20.96,20.965L108.476,93L97.242,81.766z"/>
<path fill="#FFFFFF" d="M58.665,89.113c-1.894,0.295-3.828,0.455-5.784,0.455c-9.793,0-19-3.813-25.923-10.736
	c-14.295-14.294-14.295-37.554,0-51.847c6.923-6.927,16.13-10.74,25.923-10.74c6.093,0,11.96,1.479,17.189,4.262L81.914,8.663
	C73.365,3.025,63.356,0,52.881,0C38.753,0,25.465,5.504,15.47,15.497c-20.627,20.629-20.627,54.194,0,74.821
	c9.995,9.99,23.283,15.496,37.411,15.496c6.597,0,13.011-1.2,18.989-3.498L58.665,89.113z"/>
<rect x="120.813" y="1.54" fill="#FFFFFF" width="78.517" height="16.386"/>
<rect x="151.886" y="1.54" fill="#FFFFFF" width="16.386" height="102.377"/>
</svg>
