<?xml version="1.0" encoding="utf-8"?>
<!-- Generator: Adobe Illustrator 16.0.0, SVG Export Plug-In . SVG Version: 6.00 Build 0)  -->
<!DOCTYPE svg PUBLIC "-//W3C//DTD SVG 1.1//EN" "http://www.w3.org/Graphics/SVG/1.1/DTD/svg11.dtd">
<svg version="1.1" id="Layer_1" xmlns="http://www.w3.org/2000/svg" xmlns:xlink="http://www.w3.org/1999/xlink" x="0px" y="0px"
	 width="25px" height="25px" viewBox="0 0 25 25" enable-background="new 0 0 25 25" xml:space="preserve">
<g>
	<path fill="#FFFFFF" d="M12.5,24.5c-6.617,0-12-5.383-12-12c0-6.617,5.383-12,12-12c6.617,0,12,5.383,12,12
		C24.5,19.117,19.117,24.5,12.5,24.5z"/>
	<path d="M12.5,1C18.841,1,24,6.159,24,12.5C24,18.841,18.841,24,12.5,24C6.159,24,1,18.841,1,12.5C1,6.159,6.159,1,12.5,1 M12.5,0
		C5.597,0,0,5.596,0,12.5C0,19.403,5.597,25,12.5,25S25,19.403,25,12.5C25,5.596,19.403,0,12.5,0L12.5,0z"/>
</g>
<path d="M15.451,12.006l1.312-1.406c0.869-0.928,1.304-1.39,1.304-1.385c-0.19-0.161-0.285-0.366-0.285-0.615
	c0-0.22,0.075-0.405,0.227-0.557s0.334-0.227,0.549-0.227c0.221,0,0.406,0.075,0.557,0.227c0.151,0.151,0.228,0.337,0.228,0.557
	c0,0.215-0.076,0.398-0.228,0.549c-0.15,0.152-0.336,0.228-0.557,0.228h-0.088l-1.918,4.577v3.509c0,0.391-0.433,0.72-1.297,0.985
	s-1.782,0.398-2.754,0.398c-0.977,0-1.896-0.133-2.758-0.398c-0.861-0.266-1.292-0.595-1.292-0.985v-3.509L6.531,9.376H6.443
	c-0.22,0-0.406-0.075-0.557-0.228C5.735,8.998,5.659,8.814,5.659,8.6c0-0.22,0.076-0.405,0.227-0.557
	c0.151-0.151,0.337-0.227,0.557-0.227c0.215,0,0.398,0.075,0.549,0.227S7.219,8.38,7.219,8.6c0,0.254-0.095,0.454-0.286,0.601
	l2.607,2.806l-0.22-3.809c-0.21,0-0.391-0.077-0.542-0.23C8.628,7.812,8.552,7.628,8.552,7.413c0-0.22,0.076-0.403,0.227-0.553
	s0.337-0.224,0.557-0.224c0.215,0,0.398,0.076,0.549,0.227c0.151,0.152,0.227,0.335,0.227,0.55c0,0.278-0.12,0.498-0.359,0.659
	l1.699,3.436l0.82-3.824c-0.371-0.117-0.557-0.365-0.557-0.746c0-0.221,0.076-0.406,0.227-0.557
	c0.151-0.152,0.337-0.228,0.557-0.228c0.215,0,0.398,0.075,0.549,0.228c0.151,0.15,0.228,0.336,0.228,0.557
	c0,0.381-0.183,0.629-0.549,0.746l0.82,3.824l1.699-3.436c-0.238-0.146-0.358-0.366-0.358-0.659c0-0.215,0.075-0.397,0.228-0.55
	c0.15-0.15,0.334-0.227,0.549-0.227s0.399,0.076,0.553,0.227c0.154,0.152,0.23,0.335,0.23,0.55s-0.075,0.399-0.227,0.554
	c-0.151,0.153-0.332,0.23-0.542,0.23L15.451,12.006z M6.443,8.959c0.092,0,0.176-0.035,0.249-0.106s0.11-0.155,0.11-0.253
	s-0.037-0.182-0.11-0.252C6.619,8.276,6.535,8.24,6.443,8.24c-0.098,0-0.183,0.036-0.256,0.107c-0.073,0.07-0.11,0.154-0.11,0.252
	s0.037,0.182,0.11,0.253S6.345,8.959,6.443,8.959z M17.627,10.291l-2.666,2.85l0.22-3.97l-1.794,3.61L12.5,8.614l-0.886,4.167
	l-1.802-3.61l0.227,3.97l-2.673-2.85l1.611,3.846c0.864-0.542,2.039-0.812,3.523-0.812c1.479,0,2.654,0.271,3.523,0.812
	L17.627,10.291z M16.133,16.605v-0.33l-0.571-0.879l0.571-0.352v-0.22c-0.249-0.327-0.709-0.589-1.381-0.787
	c-0.671-0.198-1.422-0.297-2.252-0.297s-1.581,0.099-2.252,0.297c-0.672,0.198-1.132,0.46-1.381,0.787v0.22l0.571,0.352
	l-0.571,0.879v0.33c0.996-0.547,2.207-0.82,3.633-0.82S15.137,16.059,16.133,16.605z M12.5,18.422c0.728,0,1.515-0.116,2.362-0.348
	c0.847-0.232,1.271-0.485,1.271-0.759c0-0.244-0.385-0.491-1.153-0.739c-0.77-0.25-1.596-0.374-2.479-0.374s-1.71,0.124-2.479,0.374
	c-0.769,0.248-1.153,0.495-1.153,0.739c0,0.273,0.424,0.526,1.271,0.759C10.985,18.306,11.772,18.422,12.5,18.422z M9.336,7.771
	c0.098,0,0.182-0.035,0.253-0.105c0.07-0.07,0.106-0.155,0.106-0.253S9.659,7.231,9.589,7.16C9.518,7.09,9.434,7.055,9.336,7.055
	S9.154,7.09,9.083,7.16c-0.07,0.071-0.106,0.155-0.106,0.253s0.036,0.183,0.106,0.253C9.154,7.736,9.238,7.771,9.336,7.771z
	 M13.43,14.701l-0.93,0.658l-0.93-0.658l0.93-0.586L13.43,14.701z M12.5,7.296c0.098,0,0.182-0.036,0.253-0.11
	c0.07-0.072,0.106-0.156,0.106-0.248c0-0.098-0.036-0.184-0.106-0.257c-0.071-0.073-0.155-0.11-0.253-0.11s-0.182,0.037-0.253,0.11
	c-0.07,0.073-0.106,0.159-0.106,0.257c0,0.092,0.036,0.176,0.106,0.248C12.318,7.26,12.402,7.296,12.5,7.296z M15.664,7.771
	c0.098,0,0.182-0.035,0.253-0.105c0.07-0.07,0.106-0.155,0.106-0.253s-0.036-0.182-0.106-0.253c-0.071-0.07-0.155-0.105-0.253-0.105
	S15.482,7.09,15.411,7.16c-0.07,0.071-0.106,0.155-0.106,0.253s0.036,0.183,0.106,0.253C15.482,7.736,15.566,7.771,15.664,7.771z
	 M18.557,8.959c0.098,0,0.183-0.035,0.253-0.106c0.071-0.071,0.106-0.155,0.106-0.253s-0.035-0.182-0.106-0.252
	c-0.07-0.071-0.155-0.107-0.253-0.107s-0.182,0.036-0.252,0.107c-0.071,0.07-0.106,0.154-0.106,0.252s0.035,0.182,0.106,0.253
	C18.375,8.924,18.459,8.959,18.557,8.959z"/>
</svg>
