<?xml version="1.0" encoding="utf-8"?>
<!-- Generator: Adobe Illustrator 16.0.0, SVG Export Plug-In . SVG Version: 6.00 Build 0)  -->
<!DOCTYPE svg PUBLIC "-//W3C//DTD SVG 1.1//EN" "http://www.w3.org/Graphics/SVG/1.1/DTD/svg11.dtd">
<svg version="1.1" id="Layer_1" xmlns="http://www.w3.org/2000/svg" xmlns:xlink="http://www.w3.org/1999/xlink" x="0px" y="0px"
	 width="100px" height="100px" viewBox="0 0 100 100" enable-background="new 0 0 100 100" xml:space="preserve">
<path fill="#FFFFFF" d="M50,2c26.471,0,48,21.53,48,48c0,26.471-21.529,48-48,48C23.53,98,2,76.471,2,50C2,23.53,23.53,2,50,2z"/>
<path fill="#6EC829" d="M50,0c27.609,0,50,22.39,50,50c0,27.609-22.391,50-50,50C22.39,100,0,77.609,0,50C0,22.39,22.39,0,50,0z
	 M98,50C98,23.53,76.471,2,50,2C23.53,2,2,23.53,2,50c0,26.471,21.53,48,48,48C76.471,98,98,76.471,98,50z"/>
<rect x="33.688" y="57.95" transform="matrix(-0.866 -0.5 0.5 -0.866 46.6455 130.8562)" fill="#555554" width="14.331" height="2.458"/>
<path fill="#555554" d="M59.109,67.907c3.588-3.384,5.857-8.143,5.857-13.449c0-6.543-3.434-12.441-8.777-15.756l5.984-10.36
	l-0.941-0.545l1.48-2.562L58.844,23l-1.48,2.561l-0.992-0.571L41.659,50.477l1.288,0.743l-1.824,3.159l3.228,1.862l1.825-3.155
	l1.284,0.742l6.186-10.718c3.799,2.417,6.229,6.652,6.229,11.347c0,7.418-6.035,13.449-13.454,13.449c-4.963,0-10.842,0-10.842,0V73
	h30.517v-5.093C66.094,67.907,61.578,67.907,59.109,67.907z"/>
</svg>
