<?xml version="1.0" encoding="utf-8"?>
<!-- Generator: Adobe Illustrator 16.0.0, SVG Export Plug-In . SVG Version: 6.00 Build 0)  -->
<!DOCTYPE svg PUBLIC "-//W3C//DTD SVG 1.1//EN" "http://www.w3.org/Graphics/SVG/1.1/DTD/svg11.dtd">
<svg version="1.1" id="Layer_1" xmlns="http://www.w3.org/2000/svg" xmlns:xlink="http://www.w3.org/1999/xlink" x="0px" y="0px"
	 width="100px" height="100px" viewBox="0 0 100 100" enable-background="new 0 0 100 100" xml:space="preserve">
<path fill="#FFFFFF" d="M50,2c26.471,0,48,21.53,48,48c0,26.471-21.529,48-48,48C23.53,98,2,76.471,2,50C2,23.53,23.53,2,50,2z"/>
<path fill="#6EC829" d="M50,0c27.609,0,50,22.39,50,50c0,27.609-22.391,50-50,50C22.39,100,0,77.609,0,50C0,22.39,22.39,0,50,0z
	 M98,50C98,23.53,76.471,2,50,2C23.53,2,2,23.53,2,50c0,26.471,21.53,48,48,48C76.471,98,98,76.471,98,50z"/>
<g>
	<polygon fill="none" stroke="#555554" stroke-width="2" stroke-miterlimit="3" points="54.724,70.739 54.724,65.949 53.527,65.949 
		53.527,39.914 52.605,39.914 52.605,37.133 51.518,37.133 51.518,35.356 50.609,35.356 49.936,30.333 49.938,30.333 49.938,29.809 
		49.438,29.809 49.376,21 49.26,25 49.199,29.809 48.7,29.809 48.7,30.333 48.029,35.356 47.123,35.356 47.123,37.133 
		46.035,37.133 46.035,39.914 45.11,39.914 45.11,65.949 43.915,65.949 43.915,70.739 43.023,70.739 43.023,74.834 55.615,74.834 
		55.615,70.739 	"/>
	<polygon fill="none" stroke="#555554" stroke-width="2" stroke-miterlimit="3" points="28.307,50.557 28.307,74.834 29.705,74.834 
		38.352,74.834 38.433,74.834 38.433,45.442 37.242,45.442 37.242,43.594 34.102,43.594 34.102,45.442 29.705,45.442 29.705,50.557 
			"/>
	<polygon fill="none" stroke="#555554" stroke-width="2" stroke-miterlimit="3" points="60.941,74.834 60.941,51.745 61.762,51.745 
		61.762,48.799 65.598,48.799 65.598,51.745 69.035,51.745 69.035,57.01 73.145,57.01 73.145,74.834 	"/>
</g>
</svg>
