<?xml version="1.0" encoding="utf-8"?>
<!-- Generator: Adobe Illustrator 16.0.0, SVG Export Plug-In . SVG Version: 6.00 Build 0)  -->
<!DOCTYPE svg PUBLIC "-//W3C//DTD SVG 1.1//EN" "http://www.w3.org/Graphics/SVG/1.1/DTD/svg11.dtd">
<svg version="1.1" id="Layer_1" xmlns="http://www.w3.org/2000/svg" xmlns:xlink="http://www.w3.org/1999/xlink" x="0px" y="0px"
	 width="540px" height="172.801px" viewBox="0 0 540 172.801" enable-background="new 0 0 540 172.801" xml:space="preserve">
<g>
	<path fill="#EC1C24" d="M251.924,62.652c0.121,0,0.182,0.059,0.182,0.176s-0.32,0.35-0.961,0.697s-1.039,0.576-1.195,0.686
		c-0.508,0.344-1.016,0.719-1.523,1.125c-1.672,1.344-2.52,2.441-2.543,3.293c0.063,0,0.135-0.02,0.217-0.059
		s0.23-0.102,0.445-0.188s0.602-0.129,1.16-0.129s1.16,0.143,1.805,0.428s1.201,0.67,1.67,1.154c1,1.047,1.5,2.328,1.5,3.844
		s-0.51,2.799-1.529,3.85s-2.285,1.576-3.797,1.576s-2.73-0.621-3.656-1.863s-1.389-2.688-1.389-4.336
		c0-2.055,0.668-3.844,2.004-5.367c1.156-1.32,3.125-2.742,5.906-4.266c0.313-0.172,0.645-0.318,0.996-0.439
		S251.803,62.652,251.924,62.652z M244.266,73.586c0,1.227,0.23,2.301,0.691,3.223c0.563,1.117,1.389,1.676,2.479,1.676
		s1.912-0.496,2.467-1.488c0.469-0.828,0.703-1.832,0.703-3.012c0-2.305-0.617-3.844-1.852-4.617
		c-0.453-0.281-0.984-0.422-1.594-0.422c-1.078,0-1.844,0.438-2.297,1.313c-0.383,0.742-0.582,1.809-0.598,3.199V73.586z"/>
	<path fill="#EC1C24" d="M256.77,64.691l-0.188,4.359c0,0.094,0.004,0.137,0.012,0.129c0.227-0.227,0.645-0.391,1.254-0.492
		s1.074-0.152,1.395-0.152c0.68,0,1.434,0.182,2.262,0.545s1.535,0.91,2.121,1.641s0.879,1.541,0.879,2.432
		c0,1.516-0.314,2.707-0.943,3.574s-1.41,1.48-2.344,1.84s-1.902,0.539-2.906,0.539s-1.873-0.184-2.607-0.551
		c-0.492-0.242-0.766-0.547-0.82-0.914c0-0.273,0.092-0.494,0.275-0.662s0.395-0.252,0.633-0.252s0.486,0.092,0.744,0.275
		s0.518,0.387,0.779,0.609s0.527,0.426,0.797,0.609s0.584,0.275,0.943,0.275c0.727,0,1.365-0.236,1.916-0.709
		s0.959-1.041,1.225-1.705s0.398-1.281,0.398-1.852c0-1.063-0.232-1.895-0.697-2.496s-0.996-1.006-1.594-1.213
		s-1.111-0.311-1.541-0.311s-0.785,0.047-1.066,0.141s-0.533,0.197-0.756,0.311s-0.406,0.219-0.551,0.316s-0.24,0.158-0.287,0.182
		s-0.096,0.035-0.146,0.035s-0.076-0.059-0.076-0.176l0.352-7.91h5.965c0.375,0,0.602-0.094,0.68-0.281
		c0.023-0.063,0.055-0.129,0.094-0.199h0.48l-0.281,1.98h-6.152C256.852,64.609,256.77,64.637,256.77,64.691z"/>
	<path fill="#EC1C24" d="M271.61,71.23c-0.41,0.281-0.844,0.422-1.305,0.422c-0.898,0-1.684-0.486-2.356-1.459
		c-0.672-0.973-1.008-2.104-1.008-3.393s0.313-2.449,0.938-3.48c0.626-1.031,1.38-1.547,2.263-1.547c1.063,0,1.898,0.5,2.508,1.5
		s0.914,2.154,0.914,3.463s-0.301,2.439-0.902,3.393C272.372,70.582,272.021,70.949,271.61,71.23z M268.359,66.889
		c0,1.309,0.146,2.305,0.435,2.988s0.793,1.025,1.512,1.025c1.031,0,1.621-0.852,1.77-2.555c0.039-0.5,0.059-0.969,0.059-1.406
		c0-0.953-0.027-1.648-0.082-2.086c-0.195-1.539-0.773-2.309-1.734-2.309c-0.5,0-0.871,0.133-1.113,0.398s-0.445,0.662-0.605,1.189
		C268.439,64.662,268.359,65.58,268.359,66.889z M281.907,61.445h1.523l-12.902,17.988h-1.512L281.907,61.445z M283.528,78.637
		c-0.41,0.281-0.844,0.422-1.305,0.422c-0.898,0-1.684-0.486-2.355-1.459s-1.008-2.104-1.008-3.393s0.313-2.449,0.938-3.48
		s1.379-1.547,2.262-1.547c1.063,0,1.898,0.5,2.508,1.5s0.914,2.154,0.914,3.463s-0.301,2.439-0.902,3.393
		C284.29,77.988,283.938,78.355,283.528,78.637z M280.278,74.295c0,1.309,0.145,2.305,0.434,2.988s0.793,1.025,1.512,1.025
		c1.031,0,1.621-0.852,1.77-2.555c0.039-0.5,0.059-0.969,0.059-1.406c0-0.953-0.027-1.648-0.082-2.086
		c-0.195-1.539-0.773-2.309-1.734-2.309c-0.5,0-0.871,0.133-1.113,0.398s-0.445,0.662-0.605,1.189S280.278,72.986,280.278,74.295z"
		/>
	<path fill="#EC1C24" d="M293.79,73.521c0-1.535,0.543-2.855,1.633-3.961s2.398-1.658,3.922-1.658s2.848,0.537,3.973,1.611
		s1.688,2.4,1.688,3.979s-0.535,2.908-1.602,3.99s-2.402,1.623-4.012,1.623s-2.945-0.547-4.008-1.641S293.79,75.057,293.79,73.521z
		 M296.708,76.539c0.766,1.289,1.809,1.934,3.129,1.934c1.023,0,1.805-0.41,2.348-1.23s0.816-1.828,0.816-3.023
		s-0.383-2.422-1.145-3.68s-1.785-1.887-3.074-1.887c-0.945,0-1.691,0.408-2.234,1.225s-0.813,1.852-0.813,3.105
		S296.06,75.422,296.708,76.539z"/>
	<path fill="#EC1C24" d="M313.114,78.602c0,0.125-0.07,0.188-0.211,0.188h-6.434c-0.078-0.016-0.117-0.07-0.117-0.164
		c0-0.141,0.184-0.234,0.551-0.281c0.844-0.125,1.266-0.57,1.266-1.336v-7.102c0-0.086-0.047-0.129-0.141-0.129h-1.277
		c-0.094,0-0.184-0.029-0.27-0.088s-0.129-0.137-0.129-0.234s0.047-0.174,0.141-0.229c0.133-0.078,0.445-0.184,0.938-0.316
		s0.738-0.352,0.738-0.656v-0.387c0-2.813,0.609-4.977,1.828-6.492c0.68-0.852,1.715-1.508,3.105-1.969
		c0.422-0.141,0.84-0.211,1.254-0.211s0.898,0.107,1.453,0.322s0.832,0.475,0.832,0.779c0,0.063-0.012,0.117-0.031,0.164
		s-0.039,0.105-0.063,0.176l-0.48,1.031c-0.063,0.125-0.137,0.188-0.223,0.188c-0.023,0-0.191-0.123-0.504-0.369
		s-0.645-0.473-0.992-0.68s-0.754-0.311-1.223-0.311c-0.914,0-1.605,0.234-2.074,0.703s-0.762,0.998-0.879,1.588
		s-0.176,1.24-0.176,1.951v3.41c0,0.063,0.039,0.094,0.117,0.094h2.285c0.219,0,0.359,0.021,0.426,0.064s0.133,0.184,0.195,0.422
		s0.094,0.457,0.094,0.656s-0.02,0.314-0.059,0.346s-0.121,0.047-0.246,0.047h-2.66c-0.102,0-0.152,0.039-0.152,0.117v6.879
		c0,1.117,0.969,1.676,2.906,1.676C313.044,78.465,313.114,78.516,313.114,78.602z"/>
	<path fill="#EC1C24" d="M320.438,78.789c-0.063,0-0.094-0.031-0.094-0.094v-0.281c0-0.063,0.039-0.094,0.117-0.094h0.27
		c0.43,0,0.723-0.039,0.879-0.117c0.578-0.281,0.867-1.055,0.867-2.32V63.707c0-0.523-0.508-0.836-1.523-0.938
		c-0.227-0.023-0.387-0.035-0.477-0.035s-0.133-0.031-0.133-0.094v-0.281c0-0.063,0.031-0.094,0.094-0.094h4.289l11.122,12.293
		c0.039,0.039,0.066,0.068,0.082,0.088s0.039,0.029,0.074,0.029s0.055-0.035,0.055-0.105v-8.074c0-1.555-0.129-2.57-0.387-3.047
		s-0.777-0.715-1.559-0.715h-0.598c-0.063,0-0.094-0.031-0.094-0.094v-0.281c0-0.063,0.031-0.094,0.094-0.094h6.094
		c0.063,0,0.094,0.031,0.094,0.094v0.281c0,0.063-0.117,0.094-0.348,0.094s-0.609,0.133-1.137,0.398s-0.789,0.594-0.789,0.984
		v14.332c0,0.172-0.023,0.295-0.07,0.369s-0.16,0.111-0.336,0.111s-0.305-0.035-0.391-0.105s-0.188-0.172-0.305-0.305
		l-12.083-13.395c-0.078-0.078-0.148-0.117-0.211-0.117c-0.039,0-0.059,0.039-0.059,0.117V76.82c0,0.711,0.563,1.18,1.688,1.406
		c0.313,0.063,0.551,0.094,0.715,0.094s0.246,0.031,0.246,0.094v0.281c0,0.063-0.031,0.094-0.094,0.094H320.438z"/>
	<path fill="#EC1C24" d="M342.822,72.613c-0.133,0-0.199,0.285-0.199,0.855c0,1.211,0.359,2.227,1.078,3.047s1.609,1.23,2.676,1.23
		s2.094-0.461,3.078-1.383c0.016-0.016,0.035-0.023,0.059-0.023h0.059c0.047,0,0.09,0.037,0.133,0.111s0.086,0.123,0.125,0.146
		c-0.906,1.102-1.973,1.863-3.199,2.285c-0.422,0.148-0.898,0.223-1.43,0.223s-1.07-0.146-1.617-0.439s-1.016-0.678-1.406-1.154
		c-0.828-0.992-1.242-2.229-1.242-3.709s0.449-2.83,1.352-4.049s2.145-1.828,3.723-1.828c1.133,0,2.059,0.506,2.777,1.518
		s1.078,1.9,1.078,2.666c0,0.336-0.082,0.504-0.246,0.504H342.822z M342.951,71.488c0,0.148,0.07,0.223,0.211,0.223h4.418
		c0.203,0,0.305-0.121,0.305-0.363c0-0.563-0.254-1.139-0.758-1.729s-1.055-0.885-1.656-0.885c-0.586,0-1.121,0.266-1.602,0.797
		s-0.785,1.137-0.918,1.816V71.488z"/>
	<path fill="#EC1C24" d="M369.775,68.242c0.086,0.023,0.129,0.078,0.129,0.164s-0.012,0.148-0.035,0.188s-0.195,0.082-0.516,0.129
		s-0.551,0.139-0.688,0.275s-0.258,0.291-0.363,0.463s-0.195,0.35-0.273,0.533s-0.152,0.35-0.223,0.498l-3.199,8.273
		c-0.094,0.227-0.18,0.34-0.258,0.34h-0.926c-0.078,0-0.164-0.121-0.258-0.363l-2.602-7.043l-2.73,7.066
		c-0.094,0.227-0.18,0.34-0.258,0.34h-0.926c-0.078,0-0.164-0.121-0.258-0.363l-3.105-8.402c-0.289-0.789-0.785-1.297-1.488-1.523
		c-0.055-0.016-0.121-0.027-0.199-0.035c-0.328-0.031-0.492-0.129-0.492-0.293s0.094-0.246,0.281-0.246h5.215
		c0.063,0,0.094,0.061,0.094,0.182s-0.043,0.201-0.129,0.24c-0.141,0.055-0.383,0.078-0.727,0.07
		c-0.57-0.016-0.855,0.219-0.855,0.703l0.023,0.281l2.379,6.504c0.156,0.398,0.313,0.387,0.469-0.035
		c0.016-0.039,0.34-0.859,0.977-2.461s1.047-2.73,1.227-3.387c-0.289-0.789-0.785-1.297-1.488-1.523
		c-0.055-0.016-0.121-0.027-0.199-0.035c-0.328-0.031-0.492-0.129-0.492-0.293s0.094-0.246,0.281-0.246h5.215
		c0.063,0,0.094,0.061,0.094,0.182s-0.043,0.201-0.129,0.24c-0.141,0.055-0.383,0.078-0.727,0.07
		c-0.57-0.016-0.855,0.219-0.855,0.703l0.023,0.281l2.379,6.504c0.156,0.398,0.313,0.387,0.469-0.035
		c0.016-0.039,0.117-0.293,0.305-0.762c0.961-2.406,1.527-3.893,1.703-4.459s0.266-0.955,0.266-1.166s-0.113-0.432-0.34-0.662
		s-0.531-0.346-0.914-0.346s-0.574-0.117-0.574-0.352c0-0.133,0.086-0.199,0.258-0.199H369.775z"/>
	<path fill="#EC1C24" d="M382.865,78.789c-0.266,0-0.398-0.078-0.398-0.234v-0.117c0-0.125,0.113-0.201,0.344-0.229
		s0.383-0.045,0.453-0.053c0.594-0.063,1.012-0.209,1.254-0.439s0.363-0.576,0.363-1.037v-3.879c0-0.055-0.012-0.113-0.035-0.176
		l-4.793-7.641c-0.75-1.195-1.492-1.883-2.227-2.063c-0.039-0.008-0.109-0.023-0.211-0.047s-0.328-0.063-0.68-0.117
		c-0.125-0.023-0.188-0.111-0.188-0.264s0.059-0.229,0.176-0.229h6.703c0.133,0,0.199,0.078,0.199,0.234s-0.066,0.234-0.199,0.234
		c-0.523,0.055-0.871,0.109-1.043,0.164c-0.391,0.141-0.586,0.391-0.586,0.75c0,0.188,0.047,0.355,0.141,0.504l3.961,6.328
		c0.086,0.125,0.137,0.205,0.156,0.24s0.063,0.053,0.129,0.053s0.172-0.113,0.313-0.34l3.164-5.379
		c0.094-0.188,0.199-0.389,0.32-0.604s0.184-0.436,0.184-0.662c0-0.57-0.391-0.906-1.172-1.008
		c-0.281-0.039-0.434-0.082-0.457-0.129s-0.035-0.105-0.035-0.176c0-0.141,0.066-0.211,0.199-0.211h5.473
		c0.109,0,0.164,0.055,0.164,0.164s-0.02,0.184-0.055,0.223s-0.082,0.068-0.141,0.088s-0.121,0.035-0.191,0.047
		s-0.223,0.045-0.457,0.1c-0.547,0.133-1.141,0.566-1.781,1.301c-0.07,0.086-0.109,0.137-0.117,0.152l-4.629,7.969v4.371
		c0,0.422,0.117,0.754,0.355,0.996s0.641,0.4,1.207,0.475s0.852,0.166,0.852,0.275v0.129c0,0.156-0.133,0.234-0.398,0.234H382.865z"
		/>
	<path fill="#EC1C24" d="M395.475,73.521c0-1.535,0.543-2.855,1.633-3.961s2.398-1.658,3.922-1.658s2.848,0.537,3.973,1.611
		s1.688,2.4,1.688,3.979s-0.535,2.908-1.602,3.99s-2.402,1.623-4.012,1.623s-2.945-0.547-4.008-1.641S395.475,75.057,395.475,73.521
		z M398.393,76.539c0.766,1.289,1.809,1.934,3.129,1.934c1.023,0,1.805-0.41,2.348-1.23s0.816-1.828,0.816-3.023
		s-0.383-2.422-1.145-3.68s-1.785-1.887-3.074-1.887c-0.945,0-1.691,0.408-2.234,1.225s-0.813,1.852-0.813,3.105
		S397.744,75.422,398.393,76.539z"/>
	<path fill="#EC1C24" d="M415.514,70.387c-0.094-0.016-0.23-0.066-0.41-0.152c-0.648-0.297-1.156-0.445-1.523-0.445
		s-0.754,0.229-1.156,0.686s-0.602,0.869-0.602,1.236v5.297c0,0.586,0.34,0.977,1.02,1.172c0.297,0.078,0.574,0.135,0.832,0.17
		s0.422,0.068,0.496,0.1s0.113,0.092,0.113,0.182s-0.039,0.143-0.117,0.158h-5.871c-0.078-0.016-0.117-0.07-0.117-0.164
		c0-0.141,0.184-0.234,0.551-0.281c0.844-0.125,1.266-0.57,1.266-1.336v-6.199c0-0.328-0.18-0.555-0.539-0.68
		c-0.156-0.055-0.324-0.1-0.504-0.135s-0.324-0.068-0.43-0.1s-0.172-0.061-0.199-0.088s-0.039-0.086-0.039-0.176
		s0.059-0.166,0.176-0.229l2.988-1.406c0.094-0.047,0.152-0.07,0.176-0.07c0.133,0,0.199,0.094,0.199,0.281v1.898
		c0,0.094,0.023,0.141,0.07,0.141c0.063,0,0.223-0.184,0.48-0.551c0.742-1.039,1.355-1.559,1.84-1.559
		c0.273,0,0.691,0.109,1.258,0.328s0.852,0.402,0.852,0.551c0,0.18-0.09,0.453-0.27,0.82S415.693,70.387,415.514,70.387z"/>
	<path fill="#EC1C24" d="M420.623,73.176c-0.094,0-0.141,0.191-0.141,0.574v3.258c0,0.766,0.422,1.211,1.266,1.336
		c0.367,0.047,0.551,0.133,0.551,0.258s-0.039,0.188-0.117,0.188h-5.227c-0.078-0.016-0.117-0.07-0.117-0.164
		c0-0.141,0.184-0.234,0.551-0.281c0.844-0.125,1.266-0.57,1.266-1.336V62.395c0-0.328-0.18-0.555-0.539-0.68
		c-0.156-0.055-0.324-0.1-0.504-0.135s-0.324-0.068-0.43-0.1s-0.172-0.061-0.199-0.088s-0.039-0.086-0.039-0.176
		s0.059-0.166,0.176-0.229l2.988-1.406c0.094-0.047,0.152-0.07,0.176-0.07c0.133,0,0.199,0.094,0.199,0.281v11.695
		c0.063,0.227,0.145,0.359,0.246,0.398s0.211,0.059,0.328,0.059c0.227,0,0.598-0.178,1.117-0.533s0.992-0.754,1.414-1.195
		s0.633-0.746,0.633-0.914s-0.074-0.273-0.223-0.316s-0.316-0.074-0.5-0.094s-0.348-0.051-0.496-0.094s-0.223-0.146-0.223-0.311
		s0.16-0.246,0.48-0.246h4.465c0.273,0,0.41,0.09,0.41,0.27c0,0.094-0.09,0.168-0.27,0.223s-0.527,0.139-1.043,0.252
		s-0.926,0.291-1.23,0.533l-3.363,2.625c0,0.102,0.074,0.227,0.223,0.375l4.816,5.074c0.313,0.32,0.633,0.529,0.961,0.627
		s0.547,0.162,0.656,0.193s0.164,0.086,0.164,0.164c0,0.141-0.063,0.211-0.188,0.211h-5.145c-0.078,0-0.117-0.047-0.117-0.141
		c0-0.141,0.098-0.23,0.293-0.27c0.586-0.109,0.879-0.309,0.879-0.598c0-0.086-0.059-0.199-0.176-0.34s-0.227-0.277-0.328-0.41
		l-3.621-3.832c0-0.008-0.004-0.016-0.012-0.023H420.623z"/>
	<path fill="#EC1C24" d="M431.873,72.613c-0.133,0-0.199,0.285-0.199,0.855c0,1.211,0.359,2.227,1.078,3.047s1.609,1.23,2.676,1.23
		s2.094-0.461,3.078-1.383c0.016-0.016,0.035-0.023,0.059-0.023h0.059c0.047,0,0.09,0.037,0.133,0.111s0.086,0.123,0.125,0.146
		c-0.906,1.102-1.973,1.863-3.199,2.285c-0.422,0.148-0.898,0.223-1.43,0.223s-1.07-0.146-1.617-0.439s-1.016-0.678-1.406-1.154
		c-0.828-0.992-1.242-2.229-1.242-3.709s0.449-2.83,1.352-4.049s2.145-1.828,3.723-1.828c1.133,0,2.059,0.506,2.777,1.518
		s1.078,1.9,1.078,2.666c0,0.336-0.082,0.504-0.246,0.504H431.873z M432.002,71.488c0,0.148,0.07,0.223,0.211,0.223h4.418
		c0.203,0,0.305-0.121,0.305-0.363c0-0.563-0.254-1.139-0.758-1.729s-1.055-0.885-1.656-0.885c-0.586,0-1.121,0.266-1.602,0.797
		s-0.785,1.137-0.918,1.816V71.488z"/>
	<path fill="#EC1C24" d="M448.01,70.387c-0.094-0.016-0.23-0.066-0.41-0.152c-0.648-0.297-1.156-0.445-1.523-0.445
		s-0.754,0.229-1.156,0.686s-0.602,0.869-0.602,1.236v5.297c0,0.586,0.34,0.977,1.02,1.172c0.297,0.078,0.574,0.135,0.832,0.17
		s0.422,0.068,0.496,0.1s0.113,0.092,0.113,0.182s-0.039,0.143-0.117,0.158h-5.871c-0.078-0.016-0.117-0.07-0.117-0.164
		c0-0.141,0.184-0.234,0.551-0.281c0.844-0.125,1.266-0.57,1.266-1.336v-6.199c0-0.328-0.18-0.555-0.539-0.68
		c-0.156-0.055-0.324-0.1-0.504-0.135s-0.324-0.068-0.43-0.1s-0.172-0.061-0.199-0.088s-0.039-0.086-0.039-0.176
		s0.059-0.166,0.176-0.229l2.988-1.406c0.094-0.047,0.152-0.07,0.176-0.07c0.133,0,0.199,0.094,0.199,0.281v1.898
		c0,0.094,0.023,0.141,0.07,0.141c0.063,0,0.223-0.184,0.48-0.551c0.742-1.039,1.355-1.559,1.84-1.559
		c0.273,0,0.691,0.109,1.258,0.328s0.852,0.402,0.852,0.551c0,0.18-0.09,0.453-0.27,0.82S448.189,70.387,448.01,70.387z"/>
	<path fill="#EC1C24" d="M455.322,70.773c0,0.172-0.066,0.258-0.195,0.258s-0.227-0.094-0.297-0.281
		c-0.188-0.516-0.469-0.973-0.84-1.371s-0.828-0.598-1.375-0.598c-0.719,0-1.203,0.359-1.453,1.078
		c-0.078,0.242-0.117,0.492-0.117,0.75s0.164,0.545,0.492,0.861s0.867,0.693,1.617,1.131s1.297,0.809,1.641,1.113
		c0.781,0.695,1.172,1.5,1.172,2.414s-0.336,1.639-1.008,2.174s-1.453,0.803-2.344,0.803c-0.477,0-0.91-0.064-1.297-0.193
		s-0.609-0.193-0.668-0.193s-0.152,0.064-0.281,0.193s-0.23,0.193-0.309,0.193h-0.199c-0.047,0-0.105-0.422-0.176-1.266
		s-0.105-1.344-0.105-1.5s0.012-0.242,0.039-0.258s0.074-0.023,0.137-0.023s0.113,0.02,0.156,0.059s0.082,0.088,0.113,0.146
		s0.055,0.119,0.074,0.182s0.07,0.18,0.148,0.352c0.531,1.133,1.352,1.699,2.461,1.699c0.492,0,0.887-0.182,1.184-0.545
		s0.445-0.768,0.445-1.213s-0.117-0.82-0.352-1.125s-0.527-0.582-0.875-0.832s-0.723-0.492-1.129-0.727
		c-1.578-0.922-2.367-1.941-2.367-3.059c0-0.836,0.359-1.557,1.078-2.162s1.457-0.908,2.215-0.908s1.316,0.082,1.68,0.246
		s0.578,0.303,0.641,0.416s0.094,0.482,0.094,1.107V70.773z"/>
	<path fill="#EC1C24" d="M471.343,68.412c0.344,0.121,0.555,0.182,0.633,0.182s0.125-0.002,0.145-0.006s0.047-0.053,0.078-0.146
		v-6.047c0-0.328-0.18-0.555-0.539-0.68c-0.156-0.055-0.324-0.1-0.504-0.135s-0.324-0.068-0.43-0.1s-0.172-0.061-0.199-0.088
		s-0.039-0.086-0.039-0.176s0.059-0.166,0.176-0.229l2.988-1.406c0.094-0.047,0.152-0.07,0.176-0.07
		c0.133,0,0.199,0.094,0.199,0.281V76.48c0.039,0.344,0.137,0.59,0.293,0.738s0.41,0.223,0.762,0.223l0.68-0.047
		c0.047,0,0.07,0.045,0.07,0.135s-0.059,0.162-0.176,0.217l-3.117,1.289c-0.094,0.047-0.176,0.07-0.242,0.07
		s-0.098-0.098-0.098-0.293v-1.066c0-0.078-0.02-0.117-0.059-0.117c-0.055,0-0.379,0.176-0.973,0.527
		c-1.82,1.078-3.356,1.238-4.606,0.48c-1-0.609-1.676-1.574-2.027-2.895c-0.164-0.617-0.246-1.271-0.246-1.963
		s0.141-1.379,0.426-2.063s0.68-1.283,1.18-1.799c1.102-1.125,2.431-1.688,3.985-1.688C470.511,68.23,470.999,68.291,471.343,68.412
		z M466.057,73.439c0,1.184,0.328,2.219,0.984,3.105s1.571,1.33,2.743,1.33c0.516,0,1.047-0.127,1.594-0.381s0.82-0.447,0.82-0.58
		v-6.047c0-0.148-0.102-0.324-0.305-0.527c-0.625-0.859-1.457-1.289-2.492-1.289s-1.853,0.436-2.45,1.307
		S466.057,72.256,466.057,73.439z"/>
	<path fill="#EC1C24" d="M476.944,73.521c0-1.535,0.543-2.855,1.633-3.961s2.398-1.658,3.922-1.658s2.848,0.537,3.973,1.611
		s1.688,2.4,1.688,3.979s-0.535,2.908-1.602,3.99s-2.402,1.623-4.012,1.623s-2.945-0.547-4.008-1.641S476.944,75.057,476.944,73.521
		z M479.862,76.539c0.766,1.289,1.809,1.934,3.129,1.934c1.023,0,1.805-0.41,2.348-1.23s0.816-1.828,0.816-3.023
		s-0.383-2.422-1.145-3.68s-1.785-1.887-3.074-1.887c-0.945,0-1.691,0.408-2.234,1.225s-0.813,1.852-0.813,3.105
		S479.214,75.422,479.862,76.539z"/>
	<path fill="#EC1C24" d="M504.905,75.098l-0.023-2.473c0-1.008-0.086-1.715-0.258-2.121s-0.391-0.713-0.656-0.92
		s-0.625-0.311-1.074-0.311s-1.398,0.352-2.852,1.055c-0.195,0.117-0.297,0.227-0.305,0.328v6.305c0,0.789,0.422,1.242,1.266,1.359
		c0.367,0.055,0.551,0.143,0.551,0.264s-0.039,0.189-0.117,0.205h-5.227c-0.078-0.016-0.117-0.07-0.117-0.164
		c0-0.148,0.184-0.25,0.551-0.305c0.844-0.117,1.266-0.57,1.266-1.359v-6.727c0-0.328-0.18-0.555-0.539-0.68
		c-0.156-0.055-0.324-0.1-0.504-0.135s-0.324-0.068-0.43-0.1s-0.172-0.061-0.199-0.088s-0.039-0.086-0.039-0.176
		s0.059-0.166,0.176-0.229l2.988-1.406c0.094-0.047,0.152-0.07,0.176-0.07c0.133,0,0.199,0.094,0.199,0.281v1.828
		c0.023,0.078,0.055,0.117,0.094,0.117c0.047,0,0.215-0.07,0.504-0.211c0.672-0.336,1.348-0.66,2.027-0.973s1.242-0.469,1.688-0.469
		c1.805,0,2.707,1.645,2.707,4.934l-0.105,3.422v0.68c0,0.609,0.305,1.008,0.914,1.195c0.258,0.086,0.504,0.146,0.742,0.182
		s0.395,0.068,0.469,0.1s0.113,0.094,0.113,0.188s-0.039,0.148-0.117,0.164h-5.648c-0.078-0.016-0.117-0.07-0.117-0.164
		c0-0.148,0.184-0.25,0.551-0.305c0.836-0.117,1.254-0.602,1.254-1.453C504.874,76.477,504.905,75.887,504.905,75.098z"/>
	<path fill="#EC1C24" d="M510.003,73.521c0-1.535,0.543-2.855,1.633-3.961s2.398-1.658,3.922-1.658s2.848,0.537,3.973,1.611
		s1.688,2.4,1.688,3.979s-0.535,2.908-1.602,3.99s-2.402,1.623-4.012,1.623s-2.945-0.547-4.008-1.641S510.003,75.057,510.003,73.521
		z M512.921,76.539c0.766,1.289,1.809,1.934,3.129,1.934c1.023,0,1.805-0.41,2.348-1.23s0.816-1.828,0.816-3.023
		s-0.383-2.422-1.145-3.68s-1.785-1.887-3.074-1.887c-0.945,0-1.691,0.408-2.234,1.225s-0.813,1.852-0.813,3.105
		S512.272,75.422,512.921,76.539z"/>
	<path fill="#EC1C24" d="M525.765,69.777c-0.047,0-0.07,0.035-0.07,0.105v6.469c0,0.469,0.102,0.836,0.309,1.102
		s0.473,0.398,0.793,0.398s0.598-0.053,0.836-0.158s0.445-0.221,0.621-0.346s0.336-0.24,0.477-0.346s0.266-0.158,0.375-0.158
		s0.164,0.027,0.164,0.082c0,0.188-0.02,0.309-0.059,0.363c-0.938,1.211-1.844,1.816-2.715,1.816s-1.527-0.275-1.969-0.826
		s-0.66-1.209-0.66-1.975v-6.527h-0.879c-0.219,0-0.336-0.07-0.348-0.211s0.012-0.23,0.066-0.27c0.414-0.266,0.984-0.742,1.711-1.43
		c0.078-0.086,0.184-0.215,0.316-0.387s0.324-0.406,0.578-0.703s0.449-0.445,0.582-0.445s0.199,0.055,0.199,0.164
		c0,0.016-0.133,0.527-0.398,1.535c0,0.141,0.063,0.215,0.188,0.223h2.988c0.344,0,0.516,0.484,0.516,1.453
		c0,0.047-0.031,0.07-0.094,0.07H525.765z"/>
	<path fill="#EC1C24" d="M245.367,98.517c0,0.188,0.027,0.281,0.082,0.281s0.094-0.012,0.117-0.039s0.188-0.211,0.492-0.547
		c0.883-0.984,1.777-1.477,2.684-1.477c1.188,0,2.059,0.266,2.613,0.797c0.68,0.672,1.02,1.801,1.02,3.387v4.887
		c0,0.766,0.422,1.211,1.266,1.336c0.367,0.047,0.551,0.129,0.551,0.246s-0.039,0.184-0.117,0.199h-5.227
		c-0.078-0.016-0.117-0.07-0.117-0.164c0-0.141,0.184-0.234,0.551-0.281c0.844-0.125,1.266-0.57,1.266-1.336v-4.77
		c0-1.148-0.082-1.895-0.246-2.238c-0.313-0.688-0.965-1.031-1.957-1.031c-0.609,0-1.258,0.262-1.945,0.781s-1.031,1.09-1.031,1.715
		v5.543c0,0.766,0.422,1.211,1.266,1.336c0.367,0.047,0.551,0.129,0.551,0.246s-0.039,0.184-0.117,0.199h-5.227
		c-0.078-0.016-0.117-0.07-0.117-0.164c0-0.141,0.184-0.234,0.551-0.281c0.844-0.125,1.266-0.57,1.266-1.336V91.192
		c0-0.328-0.18-0.555-0.539-0.68c-0.156-0.055-0.324-0.098-0.504-0.133s-0.322-0.07-0.428-0.102s-0.172-0.059-0.199-0.086
		s-0.041-0.086-0.041-0.176s0.059-0.168,0.176-0.23l2.988-1.406c0.094-0.047,0.152-0.07,0.176-0.07c0.133,0,0.199,0.094,0.199,0.281
		V98.517z"/>
	<path fill="#EC1C24" d="M262.893,106.142c0.191,0.121,0.412,0.18,0.662,0.18s0.459-0.063,0.627-0.191s0.283-0.195,0.346-0.195
		s0.094,0.086,0.094,0.254s-0.078,0.309-0.234,0.426c-1.172,0.859-1.965,1.289-2.379,1.289c-0.5,0-0.906-0.52-1.219-1.559
		c-0.023-0.078-0.043-0.113-0.059-0.105c-0.969,0.727-1.578,1.164-1.828,1.313c-0.641,0.367-1.283,0.426-1.928,0.176
		s-1.111-0.664-1.4-1.242c-0.141-0.297-0.211-0.613-0.211-0.949c0-0.664,0.246-1.191,0.738-1.582s1.43-0.766,2.813-1.125
		c0.469-0.125,0.887-0.285,1.254-0.48s0.561-0.32,0.58-0.375s0.029-0.105,0.029-0.152v-2.25c0-0.883-0.344-1.504-1.031-1.863
		c-0.227-0.117-0.498-0.176-0.814-0.176s-0.637,0.125-0.961,0.375s-0.486,0.605-0.486,1.066l0.059,0.457
		c-0.047,0.094-0.328,0.25-0.844,0.469s-0.813,0.336-0.891,0.352c-0.125,0-0.188-0.148-0.188-0.449s0.09-0.637,0.27-1.004
		s0.434-0.703,0.762-1.008c0.766-0.711,1.641-1.066,2.625-1.066s1.785,0.273,2.402,0.816s0.926,1.188,0.926,1.938v6.176
		C262.605,105.856,262.701,106.021,262.893,106.142z M257.203,105.313c0,0.375,0.145,0.703,0.434,0.98s0.619,0.414,0.99,0.414
		s0.822-0.156,1.354-0.473s0.797-0.645,0.797-0.98v-2.379c0-0.086-0.02-0.129-0.059-0.129s-0.066,0.004-0.082,0.012l-2.719,1.266
		c-0.281,0.203-0.471,0.375-0.568,0.516S257.203,104.938,257.203,105.313z"/>
	<path fill="#EC1C24" d="M276.81,97.04c0.086,0.023,0.129,0.078,0.129,0.164s-0.012,0.148-0.035,0.188s-0.195,0.082-0.516,0.129
		s-0.551,0.141-0.688,0.277s-0.258,0.289-0.363,0.461s-0.195,0.352-0.273,0.535s-0.152,0.348-0.223,0.496l-3.199,8.273
		c-0.094,0.227-0.18,0.34-0.258,0.34h-0.926c-0.078,0-0.164-0.121-0.258-0.363l-3.106-8.402c-0.289-0.789-0.785-1.297-1.488-1.523
		c-0.055-0.016-0.121-0.027-0.199-0.035c-0.328-0.031-0.492-0.129-0.492-0.293s0.094-0.246,0.281-0.246h5.216
		c0.063,0,0.094,0.063,0.094,0.184s-0.043,0.199-0.129,0.238c-0.141,0.055-0.391,0.078-0.75,0.07
		c-0.586-0.016-0.879,0.219-0.879,0.703l0.07,0.281l2.379,6.504c0.156,0.398,0.313,0.387,0.469-0.035
		c0.016-0.039,0.117-0.293,0.305-0.762c1.055-2.695,1.645-4.254,1.773-4.676s0.195-0.738,0.195-0.949s-0.113-0.43-0.34-0.66
		s-0.531-0.348-0.914-0.348s-0.574-0.117-0.574-0.352c0-0.133,0.086-0.199,0.258-0.199H276.81z"/>
	<path fill="#EC1C24" d="M279.763,101.411c-0.133,0-0.199,0.285-0.199,0.855c0,1.211,0.359,2.227,1.078,3.047s1.609,1.23,2.676,1.23
		s2.094-0.461,3.078-1.383c0.016-0.016,0.035-0.023,0.059-0.023h0.059c0.047,0,0.09,0.039,0.133,0.113s0.086,0.121,0.125,0.145
		c-0.906,1.102-1.973,1.863-3.199,2.285c-0.422,0.148-0.898,0.223-1.43,0.223s-1.07-0.145-1.617-0.438s-1.016-0.68-1.406-1.156
		c-0.828-0.992-1.242-2.227-1.242-3.707s0.449-2.832,1.352-4.051s2.145-1.828,3.723-1.828c1.133,0,2.059,0.508,2.777,1.52
		s1.078,1.898,1.078,2.664c0,0.336-0.082,0.504-0.246,0.504H279.763z M279.892,100.286c0,0.148,0.07,0.223,0.211,0.223h4.418
		c0.203,0,0.305-0.121,0.305-0.363c0-0.563-0.254-1.137-0.758-1.727s-1.055-0.887-1.656-0.887c-0.586,0-1.121,0.266-1.602,0.797
		s-0.785,1.137-0.918,1.816V100.286z"/>
	<path fill="#EC1C24" d="M304.419,98.13c0,0.547-0.316,0.82-0.949,0.82c-0.32,0-0.594-0.09-0.816-0.273s-0.395-0.34-0.516-0.469
		s-0.246-0.25-0.379-0.359c-0.563-0.461-1.25-0.512-2.059-0.152s-1.43,1.125-1.867,2.297c-0.242,0.648-0.363,1.293-0.363,1.934
		c0,1.375,0.313,2.5,0.938,3.371s1.582,1.305,2.871,1.305c0.961,0,1.824-0.43,2.59-1.289c0.234-0.258,0.375-0.387,0.422-0.387
		s0.098,0.023,0.152,0.07s0.082,0.117,0.082,0.207s-0.023,0.156-0.07,0.203c-1.195,1.664-2.699,2.496-4.512,2.496
		c-1.313,0-2.391-0.488-3.23-1.465s-1.258-2.094-1.258-3.352c0.008-2.328,0.57-4.004,1.688-5.027
		c0.984-0.898,2.387-1.348,4.207-1.348c1.125,0,1.871,0.113,2.238,0.34s0.625,0.512,0.773,0.855
		C304.399,97.985,304.419,98.06,304.419,98.13z"/>
	<path fill="#EC1C24" d="M306.224,102.321c0-1.535,0.543-2.855,1.633-3.961s2.398-1.66,3.922-1.66s2.848,0.539,3.973,1.613
		s1.688,2.398,1.688,3.977s-0.535,2.91-1.602,3.992s-2.402,1.621-4.012,1.621s-2.945-0.547-4.008-1.641
		S306.224,103.856,306.224,102.321z M309.142,105.337c0.766,1.289,1.809,1.934,3.129,1.934c1.023,0,1.805-0.41,2.348-1.23
		s0.816-1.828,0.816-3.023s-0.383-2.422-1.145-3.68s-1.785-1.887-3.074-1.887c-0.945,0-1.691,0.41-2.234,1.227
		s-0.813,1.852-0.813,3.105S308.493,104.22,309.142,105.337z"/>
	<path fill="#EC1C24" d="M323.462,107.142c0.367,0.047,0.551,0.141,0.551,0.281c0,0.094-0.039,0.148-0.117,0.164h-5.227
		c-0.078-0.016-0.117-0.07-0.117-0.164c0-0.141,0.184-0.234,0.551-0.281c0.844-0.125,1.266-0.57,1.266-1.336V91.192
		c0-0.328-0.18-0.555-0.539-0.68c-0.156-0.055-0.324-0.098-0.504-0.133s-0.324-0.07-0.43-0.102s-0.172-0.059-0.199-0.086
		s-0.039-0.086-0.039-0.176s0.059-0.168,0.176-0.23l2.988-1.406c0.094-0.047,0.152-0.07,0.176-0.07c0.133,0,0.199,0.094,0.199,0.281
		v17.215C322.196,106.571,322.618,107.017,323.462,107.142z"/>
	<path fill="#EC1C24" d="M329.568,107.142c0.367,0.047,0.551,0.141,0.551,0.281c0,0.094-0.039,0.148-0.117,0.164h-5.228
		c-0.078-0.016-0.117-0.07-0.117-0.164c0-0.141,0.184-0.234,0.551-0.281c0.844-0.125,1.266-0.57,1.266-1.336V91.192
		c0-0.328-0.18-0.555-0.539-0.68c-0.156-0.055-0.324-0.098-0.504-0.133s-0.324-0.07-0.43-0.102s-0.172-0.059-0.199-0.086
		s-0.039-0.086-0.039-0.176s0.059-0.168,0.176-0.23l2.989-1.406c0.094-0.047,0.152-0.07,0.176-0.07c0.133,0,0.199,0.094,0.199,0.281
		v17.215C328.303,106.571,328.725,107.017,329.568,107.142z"/>
	<path fill="#EC1C24" d="M333.236,101.411c-0.133,0-0.199,0.285-0.199,0.855c0,1.211,0.359,2.227,1.078,3.047s1.609,1.23,2.676,1.23
		s2.094-0.461,3.078-1.383c0.016-0.016,0.035-0.023,0.059-0.023h0.059c0.047,0,0.09,0.039,0.133,0.113s0.086,0.121,0.125,0.145
		c-0.906,1.102-1.973,1.863-3.199,2.285c-0.422,0.148-0.898,0.223-1.43,0.223s-1.07-0.145-1.617-0.438s-1.016-0.68-1.406-1.156
		c-0.828-0.992-1.242-2.227-1.242-3.707s0.449-2.832,1.352-4.051s2.145-1.828,3.723-1.828c1.133,0,2.059,0.508,2.777,1.52
		s1.078,1.898,1.078,2.664c0,0.336-0.082,0.504-0.246,0.504H333.236z M333.365,100.286c0,0.148,0.07,0.223,0.211,0.223h4.418
		c0.203,0,0.305-0.121,0.305-0.363c0-0.563-0.254-1.137-0.758-1.727s-1.055-0.887-1.656-0.887c-0.586,0-1.121,0.266-1.602,0.797
		s-0.785,1.137-0.918,1.816V100.286z"/>
	<path fill="#EC1C24" d="M351.025,97.849l3.141-0.141c0.18,0,0.297,0.02,0.352,0.059s0.113,0.176,0.176,0.406
		s0.094,0.445,0.094,0.648s-0.02,0.32-0.059,0.352s-0.117,0.047-0.234,0.047h-2.602c0.047,0.086,0.098,0.176,0.152,0.27
		s0.125,0.25,0.211,0.469s0.129,0.559,0.129,1.016s-0.113,0.934-0.336,1.43s-0.547,0.934-0.977,1.316
		c-0.953,0.859-2.188,1.289-3.703,1.289c-0.398,0-0.836-0.074-1.313-0.223c-0.117,0.125-0.273,0.242-0.469,0.348
		s-0.387,0.211-0.574,0.32c-0.469,0.266-0.703,0.531-0.703,0.797c0,0.664,1.102,1.004,3.305,1.02s3.648,0.09,4.34,0.219
		s1.23,0.383,1.613,0.766c0.602,0.602,0.902,1.289,0.902,2.063c0,0.664-0.285,1.348-0.855,2.051
		c-0.992,1.242-2.508,2.07-4.547,2.484c-0.727,0.148-1.496,0.223-2.309,0.223c-1.477,0-2.598-0.266-3.363-0.801
		s-1.148-1.184-1.148-1.941c0-0.414,0.098-0.754,0.293-1.023s0.441-0.523,0.742-0.762s0.633-0.488,0.992-0.75
		s0.703-0.598,1.031-1.004c-0.75-0.063-1.395-0.301-1.93-0.715s-0.801-0.82-0.801-1.219s0.105-0.691,0.316-0.883
		s0.469-0.355,0.773-0.492s0.625-0.266,0.961-0.383s0.629-0.27,0.879-0.457c-0.875-0.344-1.551-0.816-2.027-1.422
		s-0.715-1.27-0.715-1.988c0-1.336,0.484-2.426,1.457-3.27s2.148-1.266,3.523-1.266S350.213,97.083,351.025,97.849z
		 M344.654,110.071c-0.184,0.18-0.332,0.371-0.449,0.574s-0.176,0.461-0.176,0.77s0.109,0.633,0.332,0.973s0.527,0.645,0.91,0.918
		c0.844,0.625,1.859,0.938,3.047,0.938s2.262-0.344,3.227-1.035s1.449-1.449,1.449-2.273s-0.398-1.379-1.195-1.66
		c-0.375-0.125-1.34-0.203-2.895-0.234s-2.563-0.074-3.023-0.129c-0.203,0.234-0.414,0.441-0.629,0.621
		S344.838,109.892,344.654,110.071z M350.463,100.966c0-1.102-0.277-1.996-0.828-2.688s-1.277-1.039-2.184-1.039
		c-1.172,0-2,0.551-2.484,1.652c-0.188,0.422-0.281,0.906-0.281,1.453c0,1.117,0.23,2.047,0.691,2.789
		c0.563,0.891,1.301,1.336,2.215,1.336s1.621-0.309,2.121-0.926S350.463,102.067,350.463,100.966z"/>
	<path fill="#EC1C24" d="M357.588,101.411c-0.133,0-0.199,0.285-0.199,0.855c0,1.211,0.359,2.227,1.078,3.047s1.609,1.23,2.676,1.23
		s2.094-0.461,3.078-1.383c0.016-0.016,0.035-0.023,0.059-0.023h0.059c0.047,0,0.09,0.039,0.133,0.113s0.086,0.121,0.125,0.145
		c-0.906,1.102-1.973,1.863-3.199,2.285c-0.422,0.148-0.898,0.223-1.43,0.223s-1.07-0.145-1.617-0.438s-1.016-0.68-1.406-1.156
		c-0.828-0.992-1.242-2.227-1.242-3.707s0.449-2.832,1.352-4.051s2.145-1.828,3.723-1.828c1.133,0,2.059,0.508,2.777,1.52
		s1.078,1.898,1.078,2.664c0,0.336-0.082,0.504-0.246,0.504H357.588z M357.717,100.286c0,0.148,0.07,0.223,0.211,0.223h4.418
		c0.203,0,0.305-0.121,0.305-0.363c0-0.563-0.254-1.137-0.758-1.727s-1.055-0.887-1.656-0.887c-0.586,0-1.121,0.266-1.602,0.797
		s-0.785,1.137-0.918,1.816V100.286z"/>
	<path fill="#EC1C24" d="M380.275,97.212c0.344,0.121,0.555,0.18,0.633,0.18s0.125,0,0.145-0.004s0.047-0.055,0.078-0.148v-6.047
		c0-0.328-0.18-0.555-0.539-0.68c-0.156-0.055-0.324-0.098-0.504-0.133s-0.324-0.07-0.43-0.102s-0.172-0.059-0.199-0.086
		s-0.039-0.086-0.039-0.176s0.059-0.168,0.176-0.23l2.988-1.406c0.094-0.047,0.152-0.07,0.176-0.07c0.133,0,0.199,0.094,0.199,0.281
		v16.688c0.039,0.344,0.137,0.59,0.293,0.738s0.41,0.223,0.762,0.223l0.68-0.047c0.047,0,0.07,0.047,0.07,0.137
		s-0.059,0.16-0.176,0.215l-3.117,1.289c-0.094,0.047-0.176,0.07-0.242,0.07s-0.098-0.098-0.098-0.293v-1.066
		c0-0.078-0.02-0.117-0.059-0.117c-0.055,0-0.379,0.176-0.973,0.527c-1.82,1.078-3.355,1.238-4.605,0.48
		c-1-0.609-1.676-1.574-2.027-2.895c-0.164-0.617-0.246-1.27-0.246-1.961s0.141-1.379,0.426-2.063s0.68-1.285,1.18-1.801
		c1.102-1.125,2.43-1.688,3.984-1.688C379.443,97.028,379.932,97.091,380.275,97.212z M374.99,102.239
		c0,1.184,0.328,2.219,0.984,3.105s1.57,1.328,2.742,1.328c0.516,0,1.047-0.125,1.594-0.379s0.82-0.449,0.82-0.582v-6.047
		c0-0.148-0.102-0.324-0.305-0.527c-0.625-0.859-1.457-1.289-2.492-1.289s-1.852,0.438-2.449,1.309S374.99,101.056,374.99,102.239z"
		/>
	<path fill="#EC1C24" d="M387.705,101.411c-0.133,0-0.199,0.285-0.199,0.855c0,1.211,0.359,2.227,1.078,3.047s1.609,1.23,2.676,1.23
		s2.094-0.461,3.078-1.383c0.016-0.016,0.035-0.023,0.059-0.023h0.059c0.047,0,0.09,0.039,0.133,0.113s0.086,0.121,0.125,0.145
		c-0.906,1.102-1.973,1.863-3.199,2.285c-0.422,0.148-0.898,0.223-1.43,0.223s-1.07-0.145-1.617-0.438s-1.016-0.68-1.406-1.156
		c-0.828-0.992-1.242-2.227-1.242-3.707s0.449-2.832,1.352-4.051s2.145-1.828,3.723-1.828c1.133,0,2.059,0.508,2.777,1.52
		s1.078,1.898,1.078,2.664c0,0.336-0.082,0.504-0.246,0.504H387.705z M387.834,100.286c0,0.148,0.07,0.223,0.211,0.223h4.418
		c0.203,0,0.305-0.121,0.305-0.363c0-0.563-0.254-1.137-0.758-1.727s-1.055-0.887-1.656-0.887c-0.586,0-1.121,0.266-1.602,0.797
		s-0.785,1.137-0.918,1.816V100.286z"/>
	<path fill="#EC1C24" d="M405.494,97.849l3.141-0.141c0.18,0,0.297,0.02,0.352,0.059s0.113,0.176,0.176,0.406
		s0.094,0.445,0.094,0.648s-0.02,0.32-0.059,0.352s-0.117,0.047-0.234,0.047h-2.602c0.047,0.086,0.098,0.176,0.152,0.27
		s0.125,0.25,0.211,0.469s0.129,0.559,0.129,1.016s-0.113,0.934-0.336,1.43s-0.547,0.934-0.977,1.316
		c-0.953,0.859-2.188,1.289-3.703,1.289c-0.398,0-0.836-0.074-1.313-0.223c-0.117,0.125-0.273,0.242-0.469,0.348
		s-0.387,0.211-0.574,0.32c-0.469,0.266-0.703,0.531-0.703,0.797c0,0.664,1.102,1.004,3.305,1.02s3.648,0.09,4.34,0.219
		s1.23,0.383,1.613,0.766c0.602,0.602,0.902,1.289,0.902,2.063c0,0.664-0.285,1.348-0.855,2.051
		c-0.992,1.242-2.508,2.07-4.547,2.484c-0.727,0.148-1.496,0.223-2.309,0.223c-1.477,0-2.598-0.266-3.363-0.801
		s-1.148-1.184-1.148-1.941c0-0.414,0.098-0.754,0.293-1.023s0.441-0.523,0.742-0.762s0.633-0.488,0.992-0.75
		s0.703-0.598,1.031-1.004c-0.75-0.063-1.395-0.301-1.93-0.715s-0.801-0.82-0.801-1.219s0.105-0.691,0.316-0.883
		s0.469-0.355,0.773-0.492s0.625-0.266,0.961-0.383s0.629-0.27,0.879-0.457c-0.875-0.344-1.551-0.816-2.027-1.422
		s-0.715-1.27-0.715-1.988c0-1.336,0.484-2.426,1.457-3.27s2.148-1.266,3.523-1.266S404.682,97.083,405.494,97.849z
		 M399.123,110.071c-0.184,0.18-0.332,0.371-0.449,0.574s-0.176,0.461-0.176,0.77s0.109,0.633,0.332,0.973s0.527,0.645,0.91,0.918
		c0.844,0.625,1.859,0.938,3.047,0.938s2.262-0.344,3.227-1.035s1.449-1.449,1.449-2.273s-0.398-1.379-1.195-1.66
		c-0.375-0.125-1.34-0.203-2.895-0.234s-2.563-0.074-3.023-0.129c-0.203,0.234-0.414,0.441-0.629,0.621
		S399.307,109.892,399.123,110.071z M404.932,100.966c0-1.102-0.277-1.996-0.828-2.688s-1.277-1.039-2.184-1.039
		c-1.172,0-2,0.551-2.484,1.652c-0.188,0.422-0.281,0.906-0.281,1.453c0,1.117,0.23,2.047,0.691,2.789
		c0.563,0.891,1.301,1.336,2.215,1.336s1.621-0.309,2.121-0.926S404.932,102.067,404.932,100.966z"/>
	<path fill="#EC1C24" d="M417.295,99.185c-0.094-0.016-0.23-0.066-0.41-0.152c-0.648-0.297-1.156-0.445-1.523-0.445
		s-0.754,0.23-1.156,0.688s-0.602,0.867-0.602,1.234v5.297c0,0.586,0.34,0.977,1.02,1.172c0.297,0.078,0.574,0.137,0.832,0.172
		s0.422,0.066,0.496,0.098s0.113,0.094,0.113,0.184s-0.039,0.141-0.117,0.156h-5.871c-0.078-0.016-0.117-0.07-0.117-0.164
		c0-0.141,0.184-0.234,0.551-0.281c0.844-0.125,1.266-0.57,1.266-1.336v-6.199c0-0.328-0.18-0.555-0.539-0.68
		c-0.156-0.055-0.324-0.098-0.504-0.133s-0.324-0.07-0.43-0.102s-0.172-0.059-0.199-0.086s-0.039-0.086-0.039-0.176
		s0.059-0.168,0.176-0.23l2.988-1.406c0.094-0.047,0.152-0.07,0.176-0.07c0.133,0,0.199,0.094,0.199,0.281v1.898
		c0,0.094,0.023,0.141,0.07,0.141c0.063,0,0.223-0.184,0.48-0.551c0.742-1.039,1.355-1.559,1.84-1.559
		c0.273,0,0.691,0.109,1.258,0.328s0.852,0.402,0.852,0.551c0,0.18-0.09,0.453-0.27,0.82S417.475,99.185,417.295,99.185z"/>
	<path fill="#EC1C24" d="M420.811,101.411c-0.133,0-0.199,0.285-0.199,0.855c0,1.211,0.359,2.227,1.078,3.047s1.609,1.23,2.676,1.23
		s2.094-0.461,3.078-1.383c0.016-0.016,0.035-0.023,0.059-0.023h0.059c0.047,0,0.09,0.039,0.133,0.113s0.086,0.121,0.125,0.145
		c-0.906,1.102-1.973,1.863-3.199,2.285c-0.422,0.148-0.898,0.223-1.43,0.223s-1.07-0.145-1.617-0.438s-1.016-0.68-1.406-1.156
		c-0.828-0.992-1.242-2.227-1.242-3.707s0.449-2.832,1.352-4.051s2.145-1.828,3.723-1.828c1.133,0,2.059,0.508,2.777,1.52
		s1.078,1.898,1.078,2.664c0,0.336-0.082,0.504-0.246,0.504H420.811z M420.939,100.286c0,0.148,0.07,0.223,0.211,0.223h4.418
		c0.203,0,0.305-0.121,0.305-0.363c0-0.563-0.254-1.137-0.758-1.727s-1.055-0.887-1.656-0.887c-0.586,0-1.121,0.266-1.602,0.797
		s-0.785,1.137-0.918,1.816V100.286z"/>
	<path fill="#EC1C24" d="M431.709,101.411c-0.133,0-0.199,0.285-0.199,0.855c0,1.211,0.359,2.227,1.078,3.047s1.609,1.23,2.676,1.23
		s2.094-0.461,3.078-1.383c0.016-0.016,0.035-0.023,0.059-0.023h0.059c0.047,0,0.09,0.039,0.133,0.113s0.086,0.121,0.125,0.145
		c-0.906,1.102-1.973,1.863-3.199,2.285c-0.422,0.148-0.898,0.223-1.43,0.223s-1.07-0.145-1.617-0.438s-1.016-0.68-1.406-1.156
		c-0.828-0.992-1.242-2.227-1.242-3.707s0.449-2.832,1.352-4.051s2.145-1.828,3.723-1.828c1.133,0,2.059,0.508,2.777,1.52
		s1.078,1.898,1.078,2.664c0,0.336-0.082,0.504-0.246,0.504H431.709z M431.838,100.286c0,0.148,0.07,0.223,0.211,0.223h4.418
		c0.203,0,0.305-0.121,0.305-0.363c0-0.563-0.254-1.137-0.758-1.727s-1.055-0.887-1.656-0.887c-0.586,0-1.121,0.266-1.602,0.797
		s-0.785,1.137-0.918,1.816V100.286z"/>
	<path fill="#EC1C24" d="M446.404,99.571c0,0.172-0.066,0.258-0.195,0.258s-0.227-0.094-0.297-0.281
		c-0.188-0.516-0.469-0.973-0.84-1.371s-0.828-0.598-1.375-0.598c-0.719,0-1.203,0.359-1.453,1.078
		c-0.078,0.242-0.117,0.492-0.117,0.75s0.164,0.547,0.492,0.863s0.867,0.691,1.617,1.129s1.297,0.809,1.641,1.113
		c0.781,0.695,1.172,1.5,1.172,2.414s-0.336,1.641-1.008,2.176s-1.453,0.801-2.344,0.801c-0.477,0-0.91-0.063-1.297-0.191
		s-0.609-0.195-0.668-0.195s-0.152,0.066-0.281,0.195s-0.23,0.191-0.309,0.191h-0.199c-0.047,0-0.105-0.422-0.176-1.266
		s-0.105-1.344-0.105-1.5s0.012-0.242,0.039-0.258s0.074-0.023,0.137-0.023s0.113,0.02,0.156,0.059s0.082,0.09,0.113,0.148
		s0.055,0.117,0.074,0.18s0.07,0.18,0.148,0.352c0.531,1.133,1.352,1.699,2.461,1.699c0.492,0,0.887-0.18,1.184-0.543
		s0.445-0.77,0.445-1.215s-0.117-0.82-0.352-1.125s-0.527-0.582-0.875-0.832s-0.723-0.492-1.129-0.727
		c-1.578-0.922-2.367-1.941-2.367-3.059c0-0.836,0.359-1.555,1.078-2.16s1.457-0.91,2.215-0.91s1.316,0.082,1.68,0.246
		s0.578,0.305,0.641,0.418s0.094,0.48,0.094,1.105V99.571z"/>
</g>
<g>
	<g>
		<path fill="#E6E7E8" d="M82.2,82.504l-63.631,46.235C-6.967,93.595,0.824,44.406,35.967,18.875
			C49.991,8.685,64.868,3.851,82.2,3.851V82.504z"/>
	</g>
</g>
<g>
	<g>
		<path fill="#BBBDBF" d="M82.2,82.504l20.358,75.975c-31.889,8.547-64.583-3.031-83.989-29.739L82.2,82.504z"/>
	</g>
</g>
<g>
	<g>
		<path fill="#929497" d="M82.2,82.504V3.851c43.438,0,78.653,35.215,78.653,78.653c0,36.446-23.092,66.545-58.295,75.975
			L82.2,82.504z"/>
	</g>
</g>
<path fill="none" stroke="#EC1C24" stroke-width="2" stroke-miterlimit="10" d="M82.2,82.504V3.851
	c43.438,0,78.653,35.215,78.653,78.653c0,36.446-23.092,66.545-58.295,75.975c-31.889,8.547-64.583-3.031-83.989-29.739L82.2,82.504
	z"/>
<line fill="none" stroke="#231F20" stroke-width="0.5" stroke-miterlimit="10" x1="183.53" y1="75.5" x2="225.258" y2="75.5"/>
<circle fill="#231F20" cx="183.53" cy="75.5" r="3.621"/>
</svg>
