<?xml version="1.0" encoding="utf-8"?>
<!-- Generator: Adobe Illustrator 16.0.0, SVG Export Plug-In . SVG Version: 6.00 Build 0)  -->
<!DOCTYPE svg PUBLIC "-//W3C//DTD SVG 1.1//EN" "http://www.w3.org/Graphics/SVG/1.1/DTD/svg11.dtd">
<svg version="1.1" id="Layer_1" xmlns="http://www.w3.org/2000/svg" xmlns:xlink="http://www.w3.org/1999/xlink" x="0px" y="0px"
	 width="100px" height="100px" viewBox="0 0 100 100" enable-background="new 0 0 100 100" xml:space="preserve">
<path fill="#FFFFFF" d="M50,2c26.47,0,48,21.53,48,48S76.47,98,50,98S2,76.47,2,50S23.53,2,50,2z"/>
<path fill="#6EC829" d="M50,0c27.609,0,50,22.39,50,50c0,27.609-22.391,50-50,50C22.39,100,0,77.609,0,50C0,22.39,22.39,0,50,0z
	 M98,50C98,23.53,76.47,2,50,2S2,23.53,2,50s21.53,48,48,48S98,76.47,98,50z"/>
<g>
	<path fill="#58585B" d="M35.959,56.5c-0.199,0-0.299-0.059-0.299-0.176v-0.088c0-0.094,0.086-0.15,0.259-0.172
		s0.286-0.033,0.338-0.039c0.445-0.047,0.759-0.156,0.94-0.33c0.182-0.172,0.271-0.434,0.271-0.777v-2.909
		c0-0.041-0.009-0.085-0.026-0.132l-3.595-5.73c-0.563-0.896-1.119-1.412-1.67-1.547c-0.029-0.006-0.082-0.018-0.158-0.035
		c-0.076-0.017-0.246-0.047-0.51-0.088c-0.094-0.018-0.141-0.084-0.141-0.197c0-0.115,0.044-0.172,0.132-0.172h5.027
		c0.1,0,0.149,0.059,0.149,0.176c0,0.117-0.05,0.176-0.149,0.176c-0.393,0.041-0.653,0.082-0.782,0.123
		c-0.293,0.105-0.439,0.293-0.439,0.563c0,0.141,0.035,0.267,0.105,0.378l2.971,4.746c0.064,0.096,0.104,0.153,0.119,0.183
		c0.015,0.024,0.047,0.039,0.097,0.039c0.05,0,0.127-0.085,0.233-0.257l2.373-4.032c0.07-0.141,0.151-0.291,0.242-0.453
		c0.091-0.16,0.136-0.326,0.136-0.496c0-0.428-0.293-0.68-0.879-0.756c-0.211-0.029-0.325-0.062-0.343-0.097
		c-0.018-0.035-0.026-0.079-0.026-0.132c0-0.105,0.05-0.158,0.149-0.158h4.104c0.082,0,0.123,0.041,0.123,0.123
		s-0.013,0.138-0.04,0.167c-0.027,0.029-0.062,0.052-0.105,0.065c-0.044,0.016-0.092,0.027-0.145,0.035
		c-0.053,0.01-0.167,0.034-0.343,0.075c-0.41,0.1-0.855,0.425-1.336,0.976c-0.053,0.064-0.082,0.104-0.088,0.114l-3.472,5.978v3.277
		c0,0.314,0.089,0.564,0.268,0.747c0.179,0.183,0.479,0.301,0.905,0.354c0.425,0.057,0.637,0.125,0.637,0.207v0.098
		c0,0.115-0.1,0.176-0.299,0.176L35.959,56.5L35.959,56.5z"/>
	<path fill="#58585B" d="M45.417,52.549c0-1.15,0.409-2.141,1.226-2.971c0.817-0.828,1.797-1.243,2.94-1.243
		c1.142,0,2.136,0.403,2.979,1.208c0.845,0.807,1.267,1.801,1.267,2.984c0,1.183-0.4,2.182-1.2,2.992
		c-0.8,0.813-1.804,1.218-3.01,1.218c-1.207,0-2.209-0.41-3.006-1.23C45.816,54.688,45.417,53.701,45.417,52.549z M47.605,54.813
		c0.574,0.969,1.356,1.45,2.347,1.45c0.767,0,1.354-0.308,1.762-0.923c0.408-0.615,0.61-1.371,0.61-2.268
		c0-0.897-0.285-1.816-0.856-2.76c-0.571-0.944-1.34-1.416-2.307-1.416c-0.709,0-1.267,0.308-1.674,0.92
		c-0.407,0.61-0.611,1.389-0.611,2.328C46.875,53.086,47.119,53.975,47.605,54.813z"/>
	<path fill="#58585B" d="M61.113,55.727c-0.029-0.1-0.066-0.133-0.113-0.102c-0.047,0.033-0.238,0.134-0.572,0.304
		c-1.096,0.546-2.01,0.817-2.742,0.817c-0.73,0-1.26-0.234-1.582-0.703c-0.115-0.176-0.176-0.393-0.176-0.65v-5.359
		c-0.018-0.17-0.094-0.316-0.229-0.439c-0.182-0.15-0.37-0.232-0.566-0.244c-0.195-0.014-0.295-0.072-0.295-0.182
		s0.047-0.175,0.141-0.198l2.016-0.58c0.068-0.023,0.139-0.035,0.206-0.035c0.065,0,0.101,0.05,0.101,0.149V54.4
		c0,0.41,0.184,0.727,0.545,0.949c0.363,0.222,0.828,0.334,1.396,0.334c0.565,0,1.073-0.175,1.524-0.521
		c0.141-0.111,0.258-0.234,0.352-0.369V50.03c-0.018-0.171-0.094-0.316-0.229-0.439c-0.183-0.151-0.371-0.233-0.565-0.246
		c-0.196-0.012-0.296-0.069-0.296-0.18s0.048-0.175,0.142-0.198l2.015-0.58c0.069-0.021,0.139-0.035,0.205-0.035
		c0.067,0,0.103,0.059,0.103,0.175v6.24c0.028,0.258,0.104,0.441,0.221,0.555s0.308,0.167,0.569,0.167l0.511-0.035
		c0.035,0,0.053,0.034,0.053,0.103c0,0.067-0.043,0.12-0.131,0.161l-2.338,0.968c-0.069,0.034-0.131,0.054-0.181,0.054
		c-0.051,0-0.075-0.073-0.075-0.22v-0.793H61.113L61.113,55.727z"/>
	<path fill="#58585B" d="M65.508,55.691c0-0.281,0.1-0.521,0.295-0.717c0.196-0.195,0.432-0.296,0.707-0.296
		s0.514,0.105,0.713,0.316s0.299,0.454,0.299,0.729c0,0.274-0.094,0.514-0.279,0.713c-0.188,0.197-0.426,0.299-0.708,0.299
		c-0.284,0-0.526-0.102-0.728-0.299C65.607,56.238,65.508,55.99,65.508,55.691z M66.826,43.378c0.117,0,0.238,0.003,0.361,0.009
		c0.123,0.006,0.197,0.05,0.229,0.132v0.457l-0.65,8.456c-0.029,0.229-0.117,0.342-0.264,0.342c-0.152,0-0.244-0.112-0.273-0.342
		l-0.648-8.456v-0.457c0-0.082,0.045-0.123,0.133-0.123l0.791-0.018H66.826z"/>
</g>
</svg>
